<svg width="1920" height="848" viewBox="0 0 1920 848" fill="none" xmlns="http://www.w3.org/2000/svg">
<g opacity="0.3">
<mask id="mask0_490_301" style="mask-type:alpha" maskUnits="userSpaceOnUse" x="-15" y="0" width="2009" height="848">
<rect width="2007.94" height="847.098" transform="matrix(-1 0 0 1 1993.02 0.601807)" fill="#D61943"/>
</mask>
<g mask="url(#mask0_490_301)">
<path d="M2704.81 399.448C2704.81 399.448 2470.13 287.045 2096.21 287.045C1722.29 287.045 1621.69 435.261 1149.8 435.261C677.901 435.261 579.865 112.913 -54.5206 112.913" stroke="#F4F4F4" stroke-width="0.5428" stroke-miterlimit="10"/>
<path opacity="0.9756" d="M2704.81 404.412C2704.81 404.412 2458.55 280.071 2084.6 280.071C1710.68 280.071 1621.69 449.574 1149.77 449.574C677.84 449.574 579.834 126.465 -54.5509 126.465" stroke="#F4F4F4" stroke-width="0.5368" stroke-miterlimit="10"/>
<path opacity="0.9512" d="M2704.81 409.345C2704.81 409.345 2446.94 273.097 2073.02 273.097C1699.1 273.097 1621.72 463.856 1149.8 463.856C677.87 463.856 579.865 140.017 -54.5206 140.017" stroke="#F4F4F4" stroke-width="0.5307" stroke-miterlimit="10"/>
<path opacity="0.9268" d="M2704.81 414.309C2704.81 414.309 2435.33 266.124 2061.41 266.124C1687.49 266.124 1621.72 478.139 1149.8 478.139C677.87 478.139 579.865 153.568 -54.5206 153.568" stroke="#F4F4F4" stroke-width="0.5246" stroke-miterlimit="10"/>
<path opacity="0.9024" d="M2704.81 419.243C2704.81 419.243 2423.72 259.15 2049.8 259.15C1675.88 259.15 1621.72 492.422 1149.8 492.422C677.87 492.422 579.865 167.09 -54.5206 167.09" stroke="#F4F4F4" stroke-width="0.5185" stroke-miterlimit="10"/>
<path opacity="0.878" d="M2704.81 424.206C2704.81 424.206 2412.11 252.176 2038.19 252.176C1664.27 252.176 1621.69 506.704 1149.8 506.704C677.901 506.704 579.865 180.672 -54.5206 180.672" stroke="#F4F4F4" stroke-width="0.5124" stroke-miterlimit="10"/>
<path opacity="0.8537" d="M2704.81 429.14C2704.81 429.14 2400.53 245.202 2026.58 245.202C1652.62 245.202 1621.69 521.017 1149.77 521.017C677.84 521.017 579.834 194.224 -54.5509 194.224" stroke="#F4F4F4" stroke-width="0.5063" stroke-miterlimit="10"/>
<path opacity="0.8293" d="M2704.81 434.073C2704.81 434.073 2388.92 238.198 2014.99 238.198C1641.07 238.198 1621.72 535.269 1149.8 535.269C677.87 535.269 579.865 207.745 -54.5206 207.745" stroke="#F4F4F4" stroke-width="0.5003" stroke-miterlimit="10"/>
<path opacity="0.8049" d="M2704.81 439.037C2704.81 439.037 2377.3 231.255 2003.38 231.255C1629.46 231.255 1621.72 549.582 1149.8 549.582C677.87 549.582 579.865 221.296 -54.5206 221.296" stroke="#F4F4F4" stroke-width="0.4942" stroke-miterlimit="10"/>
<path opacity="0.7805" d="M2704.81 443.971C2704.81 443.971 2365.69 224.281 1991.77 224.281C1617.85 224.281 1621.72 563.865 1149.8 563.865C677.87 563.865 579.865 234.848 -54.5206 234.848" stroke="#F4F4F4" stroke-width="0.4881" stroke-miterlimit="10"/>
<path opacity="0.7561" d="M2704.81 448.934C2704.81 448.934 2354.08 217.307 1980.16 217.307C1606.24 217.307 1621.69 578.147 1149.8 578.147C677.901 578.147 579.865 248.4 -54.5206 248.4" stroke="#F4F4F4" stroke-width="0.482" stroke-miterlimit="10"/>
<path opacity="0.7317" d="M2704.81 453.868C2704.81 453.868 2342.5 210.333 1968.55 210.333C1594.6 210.333 1621.69 592.46 1149.77 592.46C677.84 592.46 579.834 261.982 -54.5509 261.982" stroke="#F4F4F4" stroke-width="0.4759" stroke-miterlimit="10"/>
<path opacity="0.7073" d="M2704.81 458.801C2704.81 458.801 2330.89 203.329 1956.97 203.329C1583.05 203.329 1621.69 606.713 1149.77 606.713C677.84 606.713 579.834 275.473 -54.5509 275.473" stroke="#F4F4F4" stroke-width="0.4699" stroke-miterlimit="10"/>
<path opacity="0.6829" d="M2704.81 463.765C2704.81 463.765 2319.28 196.386 1945.36 196.386C1571.44 196.386 1621.72 621.026 1149.8 621.026C677.87 621.026 579.865 289.055 -54.5206 289.055" stroke="#F4F4F4" stroke-width="0.4638" stroke-miterlimit="10"/>
<path opacity="0.6585" d="M2704.81 468.699C2704.81 468.699 2307.67 189.382 1933.75 189.382C1559.83 189.382 1621.72 635.278 1149.8 635.278C677.87 635.278 579.865 302.576 -54.5206 302.576" stroke="#F4F4F4" stroke-width="0.4577" stroke-miterlimit="10"/>
<path opacity="0.6341" d="M2704.81 473.663C2704.81 473.663 2296.06 182.438 1922.14 182.438C1548.22 182.438 1621.69 649.591 1149.8 649.591C677.901 649.591 579.865 316.128 -54.5206 316.128" stroke="#F4F4F4" stroke-width="0.4516" stroke-miterlimit="10"/>
<path opacity="0.6098" d="M2704.81 478.596C2704.81 478.596 2284.48 175.434 1910.53 175.434C1536.58 175.434 1621.69 663.873 1149.77 663.873C677.84 663.873 579.834 329.68 -54.5509 329.68" stroke="#F4F4F4" stroke-width="0.4455" stroke-miterlimit="10"/>
<path opacity="0.5854" d="M2704.81 483.529C2704.81 483.529 2272.87 168.46 1898.95 168.46C1525.03 168.46 1621.72 678.156 1149.8 678.156C677.87 678.156 579.865 343.231 -54.5206 343.231" stroke="#F4F4F4" stroke-width="0.4394" stroke-miterlimit="10"/>
<path opacity="0.561" d="M2704.81 488.493C2704.81 488.493 2261.26 161.486 1887.34 161.486C1513.42 161.486 1621.72 692.438 1149.8 692.438C677.87 692.438 579.865 356.783 -54.5206 356.783" stroke="#F4F4F4" stroke-width="0.4334" stroke-miterlimit="10"/>
<path opacity="0.5366" d="M2704.81 493.427C2704.81 493.427 2249.65 154.513 1875.73 154.513C1501.81 154.513 1621.72 706.721 1149.8 706.721C677.87 706.721 579.865 370.304 -54.5206 370.304" stroke="#F4F4F4" stroke-width="0.4273" stroke-miterlimit="10"/>
<path opacity="0.5122" d="M2704.81 498.391C2704.81 498.391 2238.04 147.539 1864.12 147.539C1490.2 147.539 1621.69 721.004 1149.8 721.004C677.901 721.004 579.865 383.856 -54.5206 383.856" stroke="#F4F4F4" stroke-width="0.4212" stroke-miterlimit="10"/>
<path opacity="0.4878" d="M2704.81 503.324C2704.81 503.324 2226.46 140.565 1852.51 140.565C1478.55 140.565 1621.69 735.286 1149.77 735.286C677.84 735.286 579.834 397.408 -54.5509 397.408" stroke="#F4F4F4" stroke-width="0.4151" stroke-miterlimit="10"/>
<path opacity="0.4634" d="M2704.81 508.288C2704.81 508.288 2214.85 133.591 1840.93 133.591C1467 133.591 1621.69 749.599 1149.77 749.599C677.84 749.599 579.834 410.99 -54.5509 410.99" stroke="#F4F4F4" stroke-width="0.409" stroke-miterlimit="10"/>
<path opacity="0.439" d="M2704.81 513.221C2704.81 513.221 2203.24 126.618 1829.31 126.618C1455.39 126.618 1621.69 763.882 1149.77 763.882C677.84 763.882 579.834 424.511 -54.5509 424.511" stroke="#F4F4F4" stroke-width="0.403" stroke-miterlimit="10"/>
<path opacity="0.4146" d="M2704.81 518.155C2704.81 518.155 2191.62 119.644 1817.7 119.644C1443.78 119.644 1621.69 778.164 1149.77 778.164C677.84 778.164 579.834 438.063 -54.5509 438.063" stroke="#F4F4F4" stroke-width="0.3969" stroke-miterlimit="10"/>
<path opacity="0.3902" d="M2704.81 523.118C2704.81 523.118 2180.01 112.67 1806.09 112.67C1432.17 112.67 1621.69 792.447 1149.77 792.447C677.84 792.447 579.834 451.614 -54.5509 451.614" stroke="#F4F4F4" stroke-width="0.3908" stroke-miterlimit="10"/>
<path opacity="0.3659" d="M2704.81 528.052C2704.81 528.052 2168.43 105.696 1794.48 105.696C1420.53 105.696 1621.69 806.729 1149.77 806.729C677.84 806.729 579.834 465.136 -54.5509 465.136" stroke="#F4F4F4" stroke-width="0.3847" stroke-miterlimit="10"/>
<path opacity="0.3415" d="M2704.81 533.016C2704.81 533.016 2156.82 98.7222 1782.9 98.7222C1408.98 98.7222 1621.69 821.012 1149.77 821.012C677.84 821.012 579.834 478.687 -54.5509 478.687" stroke="#F4F4F4" stroke-width="0.3786" stroke-miterlimit="10"/>
<path opacity="0.3171" d="M2704.81 537.949C2704.81 537.949 2145.21 91.7485 1771.29 91.7485C1397.37 91.7485 1621.69 835.325 1149.77 835.325C677.84 835.325 579.834 492.269 -54.5509 492.269" stroke="#F4F4F4" stroke-width="0.3725" stroke-miterlimit="10"/>
<path opacity="0.2927" d="M2704.81 542.883C2704.81 542.883 2133.6 84.7443 1759.68 84.7443C1385.76 84.7443 1621.69 849.608 1149.77 849.608C677.84 849.608 579.834 505.821 -54.5509 505.821" stroke="#F4F4F4" stroke-width="0.3665" stroke-miterlimit="10"/>
<path opacity="0.2683" d="M2704.81 547.847C2704.81 547.847 2121.99 77.8009 1748.07 77.8009C1374.15 77.8009 1621.69 863.89 1149.77 863.89C677.84 863.89 579.834 519.342 -54.5509 519.342" stroke="#F4F4F4" stroke-width="0.3604" stroke-miterlimit="10"/>
<path opacity="0.2439" d="M2704.81 552.78C2704.81 552.78 2110.41 70.7965 1736.46 70.7965C1362.51 70.7965 1621.69 878.173 1149.77 878.173C677.84 878.173 579.834 532.894 -54.5509 532.894" stroke="#F4F4F4" stroke-width="0.3543" stroke-miterlimit="10"/>
<path opacity="0.2195" d="M2704.81 557.744C2704.81 557.744 2098.8 63.8532 1724.85 63.8532C1350.9 63.8532 1621.69 892.486 1149.77 892.486C677.84 892.486 579.834 546.476 -54.5509 546.476" stroke="#F4F4F4" stroke-width="0.3482" stroke-miterlimit="10"/>
<path opacity="0.1951" d="M2704.81 562.677C2704.81 562.677 2087.19 56.8489 1713.27 56.8489C1339.35 56.8489 1621.72 906.738 1149.8 906.738C677.87 906.738 579.865 559.997 -54.5206 559.997" stroke="#F4F4F4" stroke-width="0.3421" stroke-miterlimit="10"/>
<path opacity="0.1707" d="M2704.81 567.611C2704.81 567.611 2075.58 49.8752 1701.66 49.8752C1327.74 49.8752 1621.69 921.02 1149.77 921.02C677.84 921.02 579.834 573.518 -54.5509 573.518" stroke="#F4F4F4" stroke-width="0.3361" stroke-miterlimit="10"/>
<path opacity="0.1463" d="M2704.81 572.575C2704.81 572.575 2063.97 42.9014 1690.05 42.9014C1316.13 42.9014 1621.69 935.303 1149.77 935.303C677.84 935.303 579.834 587.07 -54.5509 587.07" stroke="#F4F4F4" stroke-width="0.33" stroke-miterlimit="10"/>
<path opacity="0.122" d="M2704.81 577.508C2704.81 577.508 2052.39 35.9276 1678.44 35.9276C1304.48 35.9276 1621.69 949.616 1149.77 949.616C677.84 949.616 579.865 600.622 -54.5206 600.622" stroke="#F4F4F4" stroke-width="0.3239" stroke-miterlimit="10"/>
<path opacity="0.0976" d="M2704.81 582.472C2704.81 582.472 2040.78 28.9842 1666.83 28.9842C1292.87 28.9842 1621.69 963.898 1149.77 963.898C677.84 963.898 579.834 614.174 -54.5509 614.174" stroke="#F4F4F4" stroke-width="0.3178" stroke-miterlimit="10"/>
<path opacity="0.0732" d="M2704.81 587.405C2704.81 587.405 2029.17 21.9801 1655.24 21.9801C1281.32 21.9801 1621.72 978.181 1149.8 978.181C677.87 978.181 579.865 627.725 -54.5206 627.725" stroke="#F4F4F4" stroke-width="0.3117" stroke-miterlimit="10"/>
<path opacity="0.0488" d="M2704.81 592.369C2704.81 592.369 2017.55 15.0367 1643.63 15.0367C1269.71 15.0367 1621.69 992.464 1149.77 992.464C677.84 992.464 579.834 641.277 -54.5509 641.277" stroke="#F4F4F4" stroke-width="0.3056" stroke-miterlimit="10"/>
<path opacity="0.0244" d="M2704.81 597.303C2704.81 597.303 2005.94 8.03262 1632.02 8.03262C1258.1 8.03262 1621.69 1006.75 1149.77 1006.75C677.84 1006.75 579.865 654.829 -54.5206 654.829" stroke="#F4F4F4" stroke-width="0.2996" stroke-miterlimit="10"/>
</g>
</g>
</svg>
