<svg width="69" height="37" viewBox="0 0 69 37" fill="none" xmlns="http://www.w3.org/2000/svg">
<path d="M38.3114 6.76767C32.3954 6.86263 26.7394 9.21445 22.4994 13.3422C18.2593 17.47 15.7583 23.0615 15.506 28.9732H14.4988C14.4022 28.9736 14.3097 29.0127 14.2415 29.0817C14.1737 29.1504 14.1363 29.2433 14.1367 29.3403V35.9131C14.1367 36.1133 14.2982 36.2765 14.4988 36.2778H67.7924C67.993 36.2765 68.1546 36.1133 68.1546 35.9131V29.3403C68.155 29.2433 68.1176 29.1504 68.0497 29.0817C67.9815 29.0127 67.889 28.9736 67.7924 28.9732H66.7848C66.5324 23.0614 64.031 17.4696 59.7919 13.3422C55.5528 9.21477 49.8962 6.8627 43.9799 6.76767C43.8273 6.76438 43.6892 6.85646 43.6333 6.99829C43.5774 7.14011 43.6156 7.30167 43.7291 7.40321C50.0113 13.0355 54.1785 20.6464 55.54 28.9728H53.4607C52.5846 21.3698 48.8537 14.3826 43.0223 9.42694C42.9138 9.33321 42.7604 9.31183 42.6301 9.37226C42.5002 9.4331 42.418 9.56424 42.4201 9.70771V27.4361L41.4922 24.4027C41.445 24.2502 41.304 24.1466 41.1445 24.1466C40.985 24.1466 40.844 24.2502 40.7967 24.4027L39.8685 27.4361V9.70771C39.8697 9.56547 39.7879 9.43557 39.6588 9.37514C39.5301 9.31471 39.3776 9.33485 39.2691 9.42693C33.4366 14.383 29.7048 21.3693 28.8283 28.9728H26.7495C28.1102 20.6462 32.2773 13.0345 38.5593 7.40321C38.6727 7.30167 38.711 7.14011 38.655 6.99828C38.5991 6.85645 38.461 6.76437 38.3085 6.76766L38.3114 6.76767ZM37.4144 7.40814C32.9944 9.26874 29.1215 12.2252 26.1613 15.9986C23.201 19.7716 21.2517 24.2372 20.497 28.9734H16.1181C16.3635 23.3785 18.6783 18.0739 22.6133 14.0896C26.5483 10.105 31.8237 7.72343 37.4144 7.40814ZM44.8818 7.40814C50.4738 7.72262 55.7497 10.1036 59.6845 14.0883C63.6199 18.0734 65.9352 23.378 66.1806 28.9732H61.7996C61.0444 24.2371 59.0951 19.7714 56.1349 15.9984C53.1746 12.2254 49.3018 9.26874 44.8818 7.40814ZM36.5922 8.43914C31.0441 14.0209 27.3879 21.2035 26.1391 28.9732H21.1107C21.8318 24.5511 23.6175 20.3708 26.3146 16.794C29.0122 13.2167 32.5392 10.3487 36.5922 8.43914ZM45.7067 8.43914C49.7592 10.349 53.286 13.2167 55.9827 16.7941C58.6798 20.3713 60.4652 24.5513 61.1858 28.9733H56.1598C54.9109 21.2029 51.2548 14.021 45.7067 8.43914ZM39.2658 10.2377V15.2447C35.4732 18.7591 33.5028 23.8195 33.9205 28.973H29.4433C30.2964 21.7305 33.7943 15.0586 39.2658 10.2377ZM43.0305 10.2377C48.5025 15.0585 52.0004 21.7307 52.853 28.9732H48.3783C48.7955 23.8189 46.8244 18.7586 43.0305 15.2449V10.2377ZM39.2658 16.0866V28.973H34.5297C34.1277 24.1887 35.8612 19.4711 39.2658 16.0866ZM43.0305 16.0866C46.4363 19.471 48.1708 24.1886 47.7691 28.973H43.0305V16.0866ZM41.1477 25.338L42.2605 28.9733H40.0378L41.1477 25.338ZM14.7435 29.5825L39.2155 29.5821L37.3545 35.6732H14.7441L14.7435 29.5825ZM39.8501 29.5825H42.4449L44.3079 35.6736L37.9895 35.6732L39.8501 29.5825ZM43.0804 29.5825H67.5525V35.6736L44.9421 35.6732L43.0804 29.5825Z" fill="black"/>
<path d="M62.2502 5.79423H56.4775C55.3753 5.79423 54.4779 4.89685 54.4779 3.79462C54.4779 2.69239 55.3753 1.79501 56.4775 1.79501H57.071C57.3961 0.819916 58.3146 0.141602 59.3604 0.141602C60.4062 0.141602 61.3247 0.819916 61.6497 1.7879H62.2433C63.3455 1.7879 64.2429 2.68528 64.2429 3.78751C64.2429 4.88974 63.3525 5.79423 62.2502 5.79423ZM56.4775 2.49451C55.7639 2.49451 55.1844 3.07391 55.1844 3.78758C55.1844 4.50124 55.7639 5.08064 56.4775 5.08064H62.2502C62.9639 5.08064 63.5433 4.50124 63.5433 3.78758C63.5433 3.07391 62.9639 2.49451 62.2502 2.49451H61.3811C61.2116 2.49451 61.0703 2.37439 61.0349 2.21188C60.8724 1.42052 60.1729 0.848212 59.3603 0.848212C58.5548 0.848212 57.8483 1.42054 57.6857 2.21188C57.6504 2.37439 57.5091 2.49451 57.3395 2.49451H56.4775Z" fill="black"/>
<path d="M9.84454 17.8472H2.99345C1.68532 17.8472 0.6203 16.7822 0.6203 15.4741C0.6203 14.166 1.68532 13.1009 2.99345 13.1009H3.69785C4.08358 11.9437 5.17373 11.1387 6.41485 11.1387C7.65598 11.1387 8.74606 11.9437 9.13186 13.0925H9.83626C11.1444 13.0925 12.2094 14.1575 12.2094 15.4657C12.2094 16.7738 11.1528 17.8472 9.84454 17.8472ZM2.99345 13.9311C2.14648 13.9311 1.45883 14.6188 1.45883 15.4657C1.45883 16.3127 2.14647 17.0003 2.99345 17.0003H9.84454C10.6915 17.0003 11.3792 16.3127 11.3792 15.4657C11.3792 14.6188 10.6915 13.9311 9.84454 13.9311H8.81311C8.61185 13.9311 8.44413 13.7886 8.4022 13.5957C8.20933 12.6565 7.37913 11.9773 6.41478 11.9773C5.45879 11.9773 4.62026 12.6565 4.42736 13.5957C4.38543 13.7886 4.21772 13.9311 4.01646 13.9311H2.99345Z" fill="black"/>
</svg>
