<svg width="47" height="46" viewBox="0 0 47 46" fill="none" xmlns="http://www.w3.org/2000/svg">
<path d="M14.2396 43.7883H39.0885V45.4226H14.2396V43.7883Z" fill="black"/>
<path d="M17.5422 0.646484H19.1765V11.5762H17.5422V0.646484Z" fill="black"/>
<path d="M34.8264 45.4227H17.5422V5.99223L18.5032 6.164C28.5525 7.96024 36.1312 20.4046 36.1312 35.112C36.1312 38.3759 35.7436 41.6344 34.9776 44.798L34.8264 45.4227ZM19.1772 43.7884H33.5352C34.1738 40.9473 34.4977 38.0313 34.4977 35.1113C34.4977 21.6681 27.9768 10.2521 19.1764 7.98178L19.1772 43.7884Z" fill="black"/>
<path d="M15.7489 19.4396H27.7322V21.0736H15.7489V19.4396Z" fill="black"/>
<path d="M21.879 22.7088H29.0207V24.3431H21.879V22.7088Z" fill="black"/>
<path d="M21.879 25.9779H29.8381V27.6122H21.879V25.9779Z" fill="black"/>
<path d="M21.879 29.2452H30.2133V30.8795H21.879V29.2452Z" fill="black"/>
<path d="M21.879 32.5143H30.3708V34.1486H21.879V32.5143Z" fill="black"/>
<path d="M21.879 35.7834H30.2722V37.4178H21.879V35.7834Z" fill="black"/>
<path d="M21.879 39.0501H29.9286V40.6844H21.879V39.0501Z" fill="black"/>
<path d="M44.2851 14.9468H37.434C36.1259 14.9468 35.0609 13.8818 35.0609 12.5737C35.0609 11.2656 36.1259 10.2006 37.434 10.2006H38.1384C38.5242 9.04331 39.6143 8.23828 40.8554 8.23828C42.0966 8.23828 43.1866 9.04331 43.5724 10.1921H44.2768C45.585 10.1921 46.65 11.2571 46.65 12.5653C46.65 13.8734 45.5933 14.9468 44.2851 14.9468ZM37.434 11.0307C36.5871 11.0307 35.8994 11.7184 35.8994 12.5653C35.8994 13.4123 36.587 14.1 37.434 14.1H44.2851C45.1321 14.1 45.8197 13.4123 45.8197 12.5653C45.8197 11.7184 45.1321 11.0307 44.2851 11.0307H43.2537C43.0524 11.0307 42.8847 10.8882 42.8428 10.6953C42.6499 9.7561 41.8197 9.07689 40.8554 9.07689C39.8994 9.07689 39.0608 9.75613 38.8679 10.6953C38.826 10.8882 38.6583 11.0307 38.457 11.0307H37.434Z" fill="black"/>
<path d="M9.29077 21.6558H2.43968C1.13154 21.6558 0.0665283 20.5908 0.0665283 19.2827C0.0665283 17.9746 1.13154 16.9095 2.43968 16.9095H3.14407C3.52981 15.7523 4.61996 14.9473 5.86108 14.9473C7.1022 14.9473 8.19229 15.7523 8.57809 16.9011H9.28249C10.5906 16.9011 11.6556 17.9661 11.6556 19.2743C11.6556 20.5824 10.599 21.6558 9.29077 21.6558ZM2.43968 17.7397C1.59271 17.7397 0.905059 18.4273 0.905059 19.2743C0.905059 20.1213 1.59269 20.8089 2.43968 20.8089H9.29077C10.1377 20.8089 10.8254 20.1213 10.8254 19.2743C10.8254 18.4273 10.1378 17.7397 9.29077 17.7397H8.25934C8.05808 17.7397 7.89036 17.5972 7.84843 17.4043C7.65556 16.4651 6.82536 15.7859 5.86101 15.7859C4.90502 15.7859 4.06649 16.4651 3.87359 17.4043C3.83166 17.5972 3.66395 17.7397 3.46269 17.7397H2.43968Z" fill="black"/>
</svg>
