<svg width="47" height="47" viewBox="0 0 47 47" fill="none" xmlns="http://www.w3.org/2000/svg">
<path d="M29.7134 8.43786H18.0256C17.7529 8.43786 17.5386 8.22358 17.5386 7.95086C17.5386 7.67814 17.7529 7.46387 18.0256 7.46387H29.7134C29.9861 7.46387 30.2004 7.67814 30.2004 7.95086C30.2004 8.22358 29.9861 8.43786 29.7134 8.43786Z" fill="black"/>
<path d="M46.2713 46.4232H1.46862C1.19591 46.4232 0.981628 46.2089 0.981628 45.9362C0.981628 45.6635 1.1959 45.4492 1.46862 45.4492H46.2713C46.544 45.4492 46.7583 45.6635 46.7583 45.9362C46.7583 46.2089 46.544 46.4232 46.2713 46.4232Z" fill="black"/>
<path d="M23.8699 46.4231C23.5972 46.4231 23.3829 46.2089 23.3829 45.9361V1.13348C23.3829 0.860764 23.5971 0.646484 23.8699 0.646484C24.1426 0.646484 24.3569 0.860756 24.3569 1.13348V45.9361C24.3569 46.2088 24.1426 46.4231 23.8699 46.4231Z" fill="black"/>
<path d="M30.6101 20.1244H16.8279C16.5552 20.1244 16.3409 19.9101 16.3409 19.6374C16.3409 19.3647 16.5552 19.1504 16.8279 19.1504H30.6101C30.8828 19.1504 31.0971 19.3647 31.0971 19.6374C31.0971 19.9101 30.8828 20.1244 30.6101 20.1244Z" fill="black"/>
<path d="M30.9894 24.9955H16.3309C16.0582 24.9955 15.8439 24.7812 15.8439 24.5085C15.8439 24.2358 16.0582 24.0215 16.3309 24.0215H30.9894C31.2621 24.0215 31.4764 24.2358 31.4764 24.5085C31.4764 24.7812 31.2524 24.9955 30.9894 24.9955Z" fill="black"/>
<path d="M32.636 46.4223H14.1306C13.9942 46.4223 13.8578 46.3639 13.7702 46.2665C13.6825 46.1594 13.6338 46.023 13.6436 45.8867L17.5395 7.90164C17.5492 7.80424 17.5882 7.70685 17.6564 7.63867L23.5002 0.820852C23.5976 0.713717 23.7243 0.655273 23.8704 0.655273C24.0164 0.655273 24.1431 0.713712 24.2405 0.820852L30.0843 7.63867C30.1525 7.71659 30.1915 7.81399 30.2012 7.92113L33.1231 45.9061C33.1329 46.0425 33.0842 46.1788 32.9965 46.2762C32.8991 46.3639 32.7723 46.4223 32.636 46.4223ZM14.6657 45.4483H32.1097L29.2364 8.14453L23.8697 1.88185L18.4934 8.15433L14.6657 45.4483Z" fill="black"/>
<path d="M45.2971 40.5786H37.5052C37.2325 40.5786 37.0182 40.3643 37.0182 40.0916V34.2477C37.0182 33.975 37.2325 33.7607 37.5052 33.7607H45.2971C45.5698 33.7607 45.7841 33.975 45.7841 34.2477V40.0916C45.7841 40.3643 45.5698 40.5786 45.2971 40.5786ZM37.9923 39.6046H44.8101V34.7346H37.9923V39.6046Z" fill="black"/>
<path d="M37.5052 46.4233C37.2325 46.4233 37.0182 46.2091 37.0182 45.9363V40.0916C37.0182 39.8189 37.2325 39.6055 37.5052 39.6055C37.778 39.6055 37.9922 39.8197 37.9922 40.0925V45.9363C37.9922 46.2091 37.778 46.4233 37.5052 46.4233Z" fill="black"/>
<path d="M10.2346 40.5786H2.4428C2.17009 40.5786 1.95581 40.3643 1.95581 40.0916V34.2477C1.95581 33.975 2.17008 33.7607 2.4428 33.7607H10.2346C10.5074 33.7607 10.7216 33.975 10.7216 34.2477V40.0916C10.7216 40.3643 10.5074 40.5786 10.2346 40.5786ZM2.92982 39.6046H9.74763V34.7346H2.92982V39.6046Z" fill="black"/>
<path d="M10.2346 46.4233C9.9619 46.4233 9.74762 46.2091 9.74762 45.9363V40.0925C9.74762 39.8197 9.96189 39.6055 10.2346 39.6055C10.5073 39.6055 10.7216 39.8189 10.7216 40.0916L10.7216 45.9363C10.7216 46.2091 10.5073 46.4233 10.2346 46.4233Z" fill="black"/>
<path d="M11.2079 16.229H4.39011C3.046 16.229 1.95514 15.1382 1.95514 13.7941C1.95514 12.45 3.046 11.3591 4.39011 11.3591H5.04268C5.45175 10.2098 6.55233 9.41113 7.79903 9.41113C9.04572 9.41113 10.1463 10.2098 10.5554 11.3591H11.2079C12.5521 11.3591 13.6429 12.45 13.6429 13.7941C13.6429 15.1382 12.552 16.229 11.2079 16.229ZM4.39011 12.3331C3.58171 12.3331 2.92916 12.9857 2.92916 13.7941C2.92916 14.6025 3.58173 15.255 4.39011 15.255H11.2079C12.0163 15.255 12.6689 14.6025 12.6689 13.7941C12.6689 12.9857 12.0163 12.3331 11.2079 12.3331H10.1853C9.95153 12.3331 9.75673 12.1675 9.70803 11.9435C9.52298 11.0377 8.7243 10.3852 7.79899 10.3852C6.87367 10.3852 6.07507 11.0377 5.88994 11.9435C5.84124 12.1675 5.64644 12.3331 5.41269 12.3331H4.39011Z" fill="black"/>
<path d="M44.0023 8.43833H36.0449C34.5255 8.43833 33.2885 7.20134 33.2885 5.68197C33.2885 4.16261 34.5255 2.92562 36.0449 2.92562H36.863C37.311 1.58151 38.5772 0.646484 40.0187 0.646484C41.4603 0.646484 42.7264 1.58151 43.1745 2.91583H43.9926C45.512 2.91583 46.749 4.15281 46.749 5.67218C46.749 7.19154 45.5217 8.43833 44.0023 8.43833ZM36.0449 3.88985C35.0611 3.88985 34.2624 4.68852 34.2624 5.67227C34.2624 6.65602 35.0611 7.45469 36.0449 7.45469H44.0023C44.986 7.45469 45.7847 6.65602 45.7847 5.67227C45.7847 4.68852 44.986 3.88985 44.0023 3.88985H42.8043C42.5705 3.88985 42.3757 3.72427 42.327 3.50026C42.103 2.4094 41.1387 1.62051 40.0187 1.62051C38.9083 1.62051 37.9344 2.40944 37.7103 3.50026C37.6616 3.72427 37.4668 3.88985 37.2331 3.88985H36.0449Z" fill="black"/>
</svg>
