<?xml version="1.0" encoding="UTF-8" standalone="no"?>
<!DOCTYPE svg PUBLIC "-//W3C//DTD SVG 1.1//EN" "http://www.w3.org/Graphics/SVG/1.1/DTD/svg11.dtd">
<svg xmlns="http://www.w3.org/2000/svg" version="1.1" viewBox="0.00 0.00 512.00 512.00">
<g stroke-width="2.00" fill="none" stroke-linecap="butt">
<path stroke="#8c8eae" vector-effect="non-scaling-stroke" d="
  M 421.19 18.66
  Q 417.49 22.83 420.19 26.78"
/>
<path stroke="#f1a2b3" vector-effect="non-scaling-stroke" d="
  M 420.19 26.78
  Q 419.61 27.01 419.50 27.24
  C 409.04 49.56 395.01 68.11 377.64 86.87"
/>
<path stroke="#8c8eae" vector-effect="non-scaling-stroke" d="
  M 377.64 86.87
  Q 374.75 82.60 370.24 85.54
  Q 362.13 90.81 353.66 96.20
  C 350.91 97.94 349.16 99.79 350.51 103.01
  Q 351.13 104.51 352.71 106.23"
/>
<path stroke="#f1a2b3" vector-effect="non-scaling-stroke" d="
  M 352.71 106.23
  L 350.43 107.76"
/>
<path stroke="#f7fbff" vector-effect="non-scaling-stroke" d="
  M 350.43 107.76
  L 278.37 107.75"
/>
<path stroke="#f4d4ce" vector-effect="non-scaling-stroke" d="
  M 278.37 107.75
  Q 275.40 88.95 268.02 71.03"
/>
<path stroke="#8c8eae" vector-effect="non-scaling-stroke" d="
  M 268.02 71.03
  C 274.23 68.91 280.30 65.86 282.83 59.47"
/>
<path stroke="#e4eef8" vector-effect="non-scaling-stroke" d="
  M 282.83 59.47
  L 313.96 59.47
  A 0.76 0.76 0.0 0 0 314.72 58.70
  L 314.65 48.22
  Q 314.64 47.48 313.90 47.48
  L 282.13 47.54"
/>
<path stroke="#8c8eae" vector-effect="non-scaling-stroke" d="
  M 282.13 47.54
  Q 278.13 41.20 270.75 37.97
  C 253.63 30.46 232.54 31.04 215.74 37.53
  Q 206.83 40.98 199.93 47.72"
/>
<path stroke="#e4eef8" vector-effect="non-scaling-stroke" d="
  M 199.93 47.72
  L 146.30 47.51
  Q 145.70 47.50 145.70 48.11
  L 145.66 58.77
  Q 145.66 59.43 146.32 59.44
  Q 166.82 59.61 190.24 59.36
  Q 191.41 59.35 192.12 60.44"
/>
<path stroke="#8c8eae" vector-effect="non-scaling-stroke" d="
  M 192.12 60.44
  Q 192.05 60.99 191.83 61.30
  Q 191.64 61.56 191.07 61.62
  Q 183.45 62.52 180.45 69.05"
/>
<path stroke="#e4eef8" vector-effect="non-scaling-stroke" d="
  M 180.45 69.05
  L 146.17 68.83
  A 0.50 0.49 -89.4 0 0 145.67 69.33
  L 145.67 80.33
  A 0.43 0.43 0.0 0 0 146.10 80.76
  L 178.63 80.75"
/>
<path stroke="#8c8eae" vector-effect="non-scaling-stroke" d="
  M 178.63 80.75
  Q 178.96 89.98 184.46 97.75
  Q 187.43 101.94 192.62 107.55"
/>
<path stroke="#f7fbff" vector-effect="non-scaling-stroke" d="
  M 192.62 107.55
  L 67.68 107.72
  A 0.42 0.42 0.0 0 0 67.26 108.14
  L 67.19 124.47"
/>
<path stroke="#c3e6ff" vector-effect="non-scaling-stroke" d="
  M 67.19 124.47
  L 48.00 124.48"
/>
<path stroke="#f1a2b3" vector-effect="non-scaling-stroke" d="
  M 460.88 103.26
  Q 446.17 103.74 431.43 106.68"
/>
<path stroke="#f9a7b3" vector-effect="non-scaling-stroke" d="
  M 431.43 106.68
  Q 413.95 110.36 396.39 116.09"
/>
<path stroke="#8e3a62" vector-effect="non-scaling-stroke" d="
  M 396.39 116.09
  L 377.64 86.87"
/>
<path stroke="#8186a7" vector-effect="non-scaling-stroke" d="
  M 282.13 47.54
  Q 284.62 53.79 282.83 59.47"
/>
<path stroke="#916c7d" vector-effect="non-scaling-stroke" d="
  M 268.02 71.03
  Q 250.40 75.17 230.99 74.06
  Q 216.41 73.22 209.80 72.58
  Q 209.15 72.52 209.50 73.07
  Q 215.33 82.14 220.06 91.58
  Q 221.58 94.61 222.34 97.92
  Q 222.67 99.39 221.47 100.22
  A 1.49 1.47 42.4 0 1 219.90 100.28
  C 217.04 98.64 212.98 96.41 209.74 97.70
  Q 202.83 100.45 204.30 107.90
  Q 205.35 113.23 211.77 121.21"
/>
<path stroke="#9493ae" vector-effect="non-scaling-stroke" d="
  M 211.77 121.21
  Q 200.44 114.47 192.62 107.55"
/>
<path stroke="#8186a7" vector-effect="non-scaling-stroke" d="
  M 178.63 80.75
  Q 178.25 75.10 180.45 69.05"
/>
<path stroke="#8186a7" vector-effect="non-scaling-stroke" d="
  M 192.12 60.44
  Q 194.23 54.22 199.93 47.72"
/>
<path stroke="#8c8eae" vector-effect="non-scaling-stroke" d="
  M 432.15 24.00
  L 447.04 47.33"
/>
<path stroke="#8e3a62" vector-effect="non-scaling-stroke" d="
  M 447.04 47.33
  L 461.39 69.63"
/>
<path stroke="#8e3a62" vector-effect="non-scaling-stroke" d="
  M 468.74 102.80
  L 420.19 26.78"
/>
<path stroke="#f9a7b3" vector-effect="non-scaling-stroke" d="
  M 368.43 130.74
  Q 358.31 135.56 351.51 129.81
  C 344.30 123.71 344.28 114.87 350.43 107.76"
/>
<path stroke="#c3e6ff" vector-effect="non-scaling-stroke" d="
  M 67.21 182.09
  L 47.98 182.07"
/>
<path stroke="#fcd9ce" vector-effect="non-scaling-stroke" d="
  M 377.14 134.53
  L 369.72 152.97"
/>
<path stroke="#feca96" vector-effect="non-scaling-stroke" d="
  M 369.72 152.97
  L 335.71 220.09
  A 0.26 0.26 0.0 0 1 335.24 220.08
  Q 328.96 206.66 318.34 196.16
  Q 308.38 186.29 295.32 179.55"
/>
<path stroke="#ffdb98" vector-effect="non-scaling-stroke" d="
  M 295.32 179.55
  Q 293.05 177.83 289.52 176.22
  Q 269.37 167.07 247.21 164.38"
/>
<path stroke="#fcd9ce" vector-effect="non-scaling-stroke" d="
  M 278.37 107.75
  Q 278.77 111.03 279.07 113.77
  C 280.06 122.68 280.93 139.61 270.84 144.25
  C 264.04 147.37 256.33 147.24 248.91 145.17
  Q 248.05 144.93 248.01 145.82
  L 247.21 164.38"
/>
<path stroke="#fcb466" vector-effect="non-scaling-stroke" d="
  M 247.21 164.38
  L 246.52 188.84
  A 0.33 0.33 0.0 0 1 245.99 189.09
  L 211.16 163.27"
/>
<path stroke="#fcd9ce" vector-effect="non-scaling-stroke" d="
  M 211.16 163.27
  L 216.12 127.01
  A 2.68 2.67 26.3 0 0 215.35 124.75
  L 211.77 121.21"
/>
<path stroke="#9493ae" vector-effect="non-scaling-stroke" d="
  M 396.39 116.09
  Q 399.14 120.84 393.68 123.73"
/>
<path stroke="#8e3a62" vector-effect="non-scaling-stroke" d="
  M 393.68 123.73
  L 385.42 129.09"
/>
<path stroke="#916c7d" vector-effect="non-scaling-stroke" d="
  M 385.42 129.09
  Q 382.60 127.54 380.28 130.28
  Q 378.50 132.40 377.14 134.53"
/>
<path stroke="#9493ae" vector-effect="non-scaling-stroke" d="
  M 377.14 134.53
  Q 371.31 137.70 368.43 130.74"
/>
<path stroke="#8e3a62" vector-effect="non-scaling-stroke" d="
  M 368.43 130.74
  L 352.71 106.23"
/>
<path stroke="#ffdb98" vector-effect="non-scaling-stroke" d="
  M 211.16 163.27
  Q 193.89 163.98 176.50 169.97
  Q 170.64 171.99 165.74 175.38"
/>
<path stroke="#feca96" vector-effect="non-scaling-stroke" d="
  M 165.74 175.38
  Q 162.33 176.49 159.07 179.32
  Q 154.81 183.01 150.71 188.49
  Q 143.99 197.50 138.40 206.99
  Q 120.29 237.74 110.45 268.88
  Q 106.85 280.28 105.84 291.82
  C 105.31 297.77 106.29 303.78 110.10 308.62
  Q 115.89 315.97 124.54 319.94
  Q 136.54 325.45 152.26 326.19"
/>
<path stroke="#ffdb98" vector-effect="non-scaling-stroke" d="
  M 152.26 326.19
  Q 153.84 349.36 155.68 371.51
  Q 155.79 372.84 156.77 373.46
  Q 157.44 373.89 159.83 374.94"
/>
<path stroke="#9c9cc1" vector-effect="non-scaling-stroke" d="
  M 159.83 374.94
  L 156.97 425.30"
/>
<path stroke="#f7fbff" vector-effect="non-scaling-stroke" d="
  M 156.97 425.30
  Q 156.45 425.74 154.75 425.74
  Q 111.25 425.72 67.81 425.75
  Q 67.23 425.75 67.23 425.16
  L 67.21 182.09"
/>
<path stroke="#cbeaff" vector-effect="non-scaling-stroke" d="
  M 67.21 182.09
  L 89.95 182.07
  Q 91.08 182.07 92.06 182.65
  L 107.75 192.02
  A 0.32 0.32 0.0 0 0 108.23 191.75
  L 108.17 182.58
  Q 108.17 182.00 108.76 181.98
  C 121.47 181.65 131.76 173.79 135.67 161.99
  C 140.73 146.73 131.90 130.75 117.00 125.79
  Q 113.00 124.46 100.80 124.48
  Q 84.01 124.51 67.19 124.47"
/>
<path stroke="#c3e6ff" vector-effect="non-scaling-stroke" d="
  M 460.88 261.14
  L 442.56 261.16"
/>
<path stroke="#f7fbff" vector-effect="non-scaling-stroke" d="
  M 442.56 261.16
  L 442.53 108.49
  A 0.77 0.77 0.0 0 0 441.70 107.72
  Q 436.57 108.13 431.43 106.68"
/>
<path stroke="#cbeaff" vector-effect="non-scaling-stroke" d="
  M 442.56 261.16
  Q 424.25 261.19 405.95 261.19
  Q 399.04 261.18 395.06 262.46
  C 381.72 266.73 373.40 279.66 375.23 293.66
  C 377.08 307.80 388.79 318.27 403.20 318.63
  Q 403.82 318.64 403.82 319.26
  L 403.79 328.27
  A 0.41 0.41 0.0 0 0 404.41 328.62
  Q 411.97 324.10 419.17 319.74
  Q 420.83 318.75 423.08 318.73
  Q 433.27 318.64 442.57 318.73"
/>
<path stroke="#f7fbff" vector-effect="non-scaling-stroke" d="
  M 442.57 318.73
  L 442.53 425.15
  Q 442.53 425.74 441.95 425.74
  L 296.93 425.76"
/>
<path stroke="#9493ae" vector-effect="non-scaling-stroke" d="
  M 296.93 425.76
  L 295.47 379.19"
/>
<path stroke="#ffdb98" vector-effect="non-scaling-stroke" d="
  M 295.47 379.19
  C 297.14 378.64 298.12 378.05 298.37 376.14
  Q 304.25 330.37 307.48 284.23"
/>
<path stroke="#feca96" vector-effect="non-scaling-stroke" d="
  M 307.48 284.23
  Q 316.98 290.86 326.75 292.74
  C 339.33 295.15 350.02 290.03 358.01 280.50
  Q 367.97 268.62 375.15 251.40
  C 385.63 226.24 392.51 199.89 397.10 173.36"
/>
<path stroke="#fcd9ce" vector-effect="non-scaling-stroke" d="
  M 397.10 173.36
  L 403.55 168.90"
/>
<path stroke="#f9a7b3" vector-effect="non-scaling-stroke" d="
  M 403.55 168.90
  Q 409.09 166.25 413.42 163.14
  Q 417.59 160.14 414.33 155.73"
/>
<path stroke="#fcd9ce" vector-effect="non-scaling-stroke" d="
  M 414.33 155.73
  Q 421.41 141.62 414.63 127.44
  C 412.42 122.83 408.63 119.14 403.07 121.33
  Q 399.85 122.60 395.69 126.73"
/>
<path stroke="#f9a7b3" vector-effect="non-scaling-stroke" d="
  M 395.69 126.73
  L 393.68 123.73"
/>
<path stroke="#f1a2b3" vector-effect="non-scaling-stroke" d="
  M 452.63 44.93
  Q 451.18 45.33 449.99 45.66
  Q 448.41 46.10 447.04 47.33"
/>
<path stroke="#9498c1" vector-effect="non-scaling-stroke" d="
  M 156.97 425.30
  Q 156.85 425.53 157.09 425.70
  Q 157.22 425.79 157.43 425.78
  Q 198.81 425.64 240.31 425.88"
/>
<path stroke="#8c8eae" vector-effect="non-scaling-stroke" d="
  M 240.31 425.88
  L 296.93 425.76"
/>
<path stroke="#c3e6ff" vector-effect="non-scaling-stroke" d="
  M 442.57 318.73
  L 460.87 318.70"
/>
<path stroke="#fda52e" vector-effect="non-scaling-stroke" d="
  M 307.48 284.23
  Q 308.46 269.50 309.09 248.75
  Q 309.70 228.84 308.26 211.00
  Q 307.63 203.18 305.51 194.50
  Q 303.42 185.91 295.32 179.55"
/>
<path stroke="#fba364" vector-effect="non-scaling-stroke" d="
  M 397.10 173.36
  L 369.72 152.97"
/>
<path stroke="#946e47" vector-effect="non-scaling-stroke" d="
  M 295.47 379.19
  Q 290.07 380.44 284.50 380.89
  Q 268.56 382.19 252.81 382.02"
/>
<path stroke="#9c7859" vector-effect="non-scaling-stroke" d="
  M 252.81 382.02
  C 226.25 382.09 197.33 380.77 170.75 377.21
  Q 167.10 376.73 159.83 374.94"
/>
<path stroke="#fda52e" vector-effect="non-scaling-stroke" d="
  M 152.26 326.19
  Q 161.41 326.78 170.50 326.20
  Q 190.82 324.90 210.74 320.63
  Q 223.02 318.00 234.88 314.69"
/>
<path stroke="#fcb466" vector-effect="non-scaling-stroke" d="
  M 234.88 314.69
  L 238.40 315.37"
/>
<path stroke="#8a6540" vector-effect="non-scaling-stroke" d="
  M 238.40 315.37
  Q 236.23 321.82 240.23 324.60
  Q 242.36 326.09 244.99 326.05
  Q 261.60 325.86 278.14 326.10
  C 281.85 326.15 285.13 324.83 286.15 320.93
  Q 292.40 297.00 298.61 272.57
  C 299.92 267.43 297.05 263.58 292.04 263.58
  Q 272.55 263.55 256.78 263.60
  C 250.67 263.62 250.10 269.95 248.93 274.36"
/>
<path stroke="#fcb466" vector-effect="non-scaling-stroke" d="
  M 248.93 274.36
  C 242.83 271.03 238.83 276.92 236.98 281.81"
/>
<path stroke="#fda52e" vector-effect="non-scaling-stroke" d="
  M 236.98 281.81
  L 166.80 271.67
  A 0.39 0.38 16.0 0 1 166.50 271.14
  Q 177.50 243.68 183.11 217.63
  Q 185.45 206.81 185.65 196.46
  Q 185.76 191.30 184.62 186.23
  Q 181.59 172.75 165.74 175.38"
/>
<path stroke="#f68081" vector-effect="non-scaling-stroke" d="
  M 403.55 168.90
  C 401.96 168.39 400.88 167.99 399.91 166.52
  Q 392.30 155.00 385.20 143.55
  A 1.90 1.88 42.5 0 1 385.11 141.71
  C 386.91 138.03 388.70 132.57 385.42 129.09"
/>
<path stroke="#fba364" vector-effect="non-scaling-stroke" d="
  M 236.98 281.81
  L 234.88 314.69"
/>
<path stroke="#313070" vector-effect="non-scaling-stroke" d="
  M 252.81 382.02
  L 240.31 425.88"
/>
<path stroke="#f68081" vector-effect="non-scaling-stroke" d="
  M 414.33 155.73
  L 395.69 126.73"
/>
<path stroke="#876376" vector-effect="non-scaling-stroke" d="
  M 238.40 315.37
  Q 240.47 315.69 246.75 316.37
  C 255.10 317.28 265.12 316.78 272.01 312.21
  C 277.32 308.69 280.69 301.07 277.31 295.42
  C 272.46 287.31 256.12 285.77 247.04 285.53
  Q 246.09 285.50 246.89 284.99
  C 249.51 283.30 253.86 279.21 250.56 275.95
  Q 249.64 275.03 248.93 274.36"
/>
<path stroke="#f7fbff" vector-effect="non-scaling-stroke" d="
  M 129.94 64.14
  A 30.22 30.22 0.0 0 0 99.72 33.92
  A 30.22 30.22 0.0 0 0 69.50 64.14
  A 30.22 30.22 0.0 0 0 99.72 94.36
  A 30.22 30.22 0.0 0 0 129.94 64.14"
/>
<path stroke="#ecf2f8" vector-effect="non-scaling-stroke" d="
  M 108.12 53.37
  A 8.40 8.40 0.0 0 0 99.72 44.97
  A 8.40 8.40 0.0 0 0 91.32 53.37
  A 8.40 8.40 0.0 0 0 99.72 61.77
  A 8.40 8.40 0.0 0 0 108.12 53.37"
/>
<path stroke="#ecf2f8" vector-effect="non-scaling-stroke" d="
  M 118.51 78.71
  Q 114.05 67.82 103.30 65.73
  C 93.65 63.85 84.50 69.42 81.03 78.60
  A 0.54 0.54 0.0 0 0 81.53 79.33
  L 118.10 79.33
  A 0.45 0.45 0.0 0 0 118.51 78.71"
/>
<path stroke="#876376" vector-effect="non-scaling-stroke" d="
  M 266.17 88.65
  L 268.74 90.81
  Q 269.23 91.22 269.76 90.87
  L 270.08 90.65
  A 0.54 0.53 54.9 0 0 270.21 89.89
  Q 268.78 87.96 266.73 86.90
  A 2.25 2.25 0.0 0 0 263.64 87.99
  Q 262.66 90.20 263.60 92.49
  Q 263.91 93.26 264.70 93.03
  L 265.04 92.93
  A 0.56 0.55 72.2 0 0 265.41 92.20
  Q 264.80 90.51 265.32 88.90
  A 0.53 0.53 0.0 0 1 266.17 88.65"
/>
<path stroke="#876376" vector-effect="non-scaling-stroke" d="
  M 255.68 88.65
  Q 259.06 99.46 268.27 105.21
  A 0.85 0.85 0.0 0 0 269.46 104.92
  L 269.65 104.58
  A 0.58 0.57 31.5 0 0 269.46 103.81
  Q 260.61 98.14 257.56 88.32
  Q 257.30 87.47 256.44 87.72
  L 256.13 87.81
  A 0.67 0.66 -17.0 0 0 255.68 88.65"
/>
<path stroke="#876376" vector-effect="non-scaling-stroke" d="
  M 243.35 91.31
  C 245.65 90.87 247.43 93.20 248.64 94.87
  A 0.54 0.54 0.0 0 0 249.40 94.99
  L 249.64 94.81
  Q 250.29 94.32 249.89 93.61
  C 248.35 90.93 245.21 88.20 242.00 89.81
  C 239.54 91.04 239.86 93.85 241.19 95.83
  Q 241.65 96.52 242.40 96.16
  Q 242.76 95.98 242.97 95.65
  Q 243.26 95.22 242.92 94.83
  C 242.00 93.78 241.34 91.69 243.35 91.31"
/>
<path stroke="#876376" vector-effect="non-scaling-stroke" d="
  M 267.58 123.53
  Q 261.58 126.55 256.65 124.73
  Q 255.77 124.41 255.75 125.34
  L 255.73 125.71
  Q 255.71 126.36 256.33 126.55
  Q 262.70 128.51 268.20 125.20
  Q 269.08 124.67 268.42 123.89
  L 268.23 123.66
  A 0.54 0.53 -33.3 0 0 267.58 123.53"
/>
<path stroke="#cbeaff" vector-effect="non-scaling-stroke" d="
  M 57.97 153.25
  A 7.40 7.40 0.0 0 0 50.57 145.85
  A 7.40 7.40 0.0 0 0 43.17 153.25
  A 7.40 7.40 0.0 0 0 50.57 160.65
  A 7.40 7.40 0.0 0 0 57.97 153.25"
/>
<path stroke="#cbeaff" vector-effect="non-scaling-stroke" d="
  M 83.48 153.25
  A 7.40 7.40 0.0 0 0 76.08 145.85
  A 7.40 7.40 0.0 0 0 68.68 153.25
  A 7.40 7.40 0.0 0 0 76.08 160.65
  A 7.40 7.40 0.0 0 0 83.48 153.25"
/>
<path stroke="#cbeaff" vector-effect="non-scaling-stroke" d="
  M 108.98 153.25
  A 7.40 7.40 0.0 0 0 101.58 145.85
  A 7.40 7.40 0.0 0 0 94.18 153.25
  A 7.40 7.40 0.0 0 0 101.58 160.65
  A 7.40 7.40 0.0 0 0 108.98 153.25"
/>
<path stroke="#e4eef8" vector-effect="non-scaling-stroke" d="
  M 93.78 450.07
  Q 88.46 447.48 84.22 449.97
  Q 76.97 454.22 79.83 462.87
  C 81.84 468.93 88.54 474.57 93.73 477.88
  A 1.03 1.02 -45.3 0 0 94.85 477.87
  Q 103.56 472.16 107.66 465.18
  C 110.49 460.35 110.27 454.18 105.49 450.74
  Q 100.50 447.14 94.73 450.07
  Q 94.26 450.31 93.78 450.07"
/>
<path stroke="#e4eef8" vector-effect="non-scaling-stroke" d="
  M 181.58 477.94
  A 0.76 0.76 0.0 0 0 183.02 477.96
  L 191.79 452.96
  A 0.76 0.76 0.0 0 0 190.82 451.99
  L 165.80 460.75
  A 0.76 0.76 0.0 0 0 165.82 462.19
  L 177.33 465.86
  A 0.76 0.76 0.0 0 1 177.82 466.35
  L 181.58 477.94"
/>
<path stroke="#e4eef8" vector-effect="non-scaling-stroke" d="
  M 124.97 472.32
  L 124.95 474.53
  A 1.05 1.05 0.0 0 0 126.43 475.49
  C 129.20 474.24 132.08 471.79 135.31 471.84
  Q 141.58 471.94 147.88 471.83
  C 161.14 471.62 161.15 452.07 146.82 452.19
  Q 135.59 452.29 126.35 452.24
  C 113.88 452.19 112.29 469.86 124.42 471.67
  Q 124.97 471.75 124.97 472.32"
/>
<path stroke="#cbeaff" vector-effect="non-scaling-stroke" d="
  M 417.83 289.88
  A 7.40 7.40 0.0 0 0 410.43 282.48
  A 7.40 7.40 0.0 0 0 403.03 289.88
  A 7.40 7.40 0.0 0 0 410.43 297.28
  A 7.40 7.40 0.0 0 0 417.83 289.88"
/>
<path stroke="#cbeaff" vector-effect="non-scaling-stroke" d="
  M 443.33 289.89
  A 7.40 7.40 0.0 0 0 435.93 282.49
  A 7.40 7.40 0.0 0 0 428.53 289.89
  A 7.40 7.40 0.0 0 0 435.93 297.29
  A 7.40 7.40 0.0 0 0 443.33 289.89"
/>
<path stroke="#cbeaff" vector-effect="non-scaling-stroke" d="
  M 468.84 289.88
  A 7.40 7.40 0.0 0 0 461.44 282.48
  A 7.40 7.40 0.0 0 0 454.04 289.88
  A 7.40 7.40 0.0 0 0 461.44 297.28
  A 7.40 7.40 0.0 0 0 468.84 289.88"
/>
</g>
<path fill="#eff6ff" d="
  M 421.19 18.66
  Q 417.49 22.83 420.19 26.78
  Q 419.61 27.01 419.50 27.24
  C 409.04 49.56 395.01 68.11 377.64 86.87
  Q 374.75 82.60 370.24 85.54
  Q 362.13 90.81 353.66 96.20
  C 350.91 97.94 349.16 99.79 350.51 103.01
  Q 351.13 104.51 352.71 106.23
  L 350.43 107.76
  L 278.37 107.75
  Q 275.40 88.95 268.02 71.03
  C 274.23 68.91 280.30 65.86 282.83 59.47
  L 313.96 59.47
  A 0.76 0.76 0.0 0 0 314.72 58.70
  L 314.65 48.22
  Q 314.64 47.48 313.90 47.48
  L 282.13 47.54
  Q 278.13 41.20 270.75 37.97
  C 253.63 30.46 232.54 31.04 215.74 37.53
  Q 206.83 40.98 199.93 47.72
  L 146.30 47.51
  Q 145.70 47.50 145.70 48.11
  L 145.66 58.77
  Q 145.66 59.43 146.32 59.44
  Q 166.82 59.61 190.24 59.36
  Q 191.41 59.35 192.12 60.44
  Q 192.05 60.99 191.83 61.30
  Q 191.64 61.56 191.07 61.62
  Q 183.45 62.52 180.45 69.05
  L 146.17 68.83
  A 0.50 0.49 -89.4 0 0 145.67 69.33
  L 145.67 80.33
  A 0.43 0.43 0.0 0 0 146.10 80.76
  L 178.63 80.75
  Q 178.96 89.98 184.46 97.75
  Q 187.43 101.94 192.62 107.55
  L 67.68 107.72
  A 0.42 0.42 0.0 0 0 67.26 108.14
  L 67.19 124.47
  L 48.00 124.48
  Q 47.95 102.88 47.99 81.41
  Q 48.02 68.07 49.42 62.07
  C 54.87 38.77 72.71 21.21 95.99 16.32
  Q 101.85 15.09 115.88 15.09
  Q 258.31 15.09 400.75 15.04
  Q 411.08 15.04 421.19 18.66
  Z
  M 129.94 64.14
  A 30.22 30.22 0.0 0 0 99.72 33.92
  A 30.22 30.22 0.0 0 0 69.50 64.14
  A 30.22 30.22 0.0 0 0 99.72 94.36
  A 30.22 30.22 0.0 0 0 129.94 64.14
  Z"
/>
<path fill="#29265d" d="
  M 432.15 24.00
  L 447.04 47.33
  L 461.39 69.63
  Q 469.19 81.82 477.14 94.09
  Q 479.35 97.49 479.62 99.28
  Q 480.17 102.99 476.39 104.94
  Q 472.28 107.06 468.74 102.80
  L 420.19 26.78
  Q 417.49 22.83 421.19 18.66
  Q 425.47 16.37 428.81 19.18
  Q 429.74 19.97 432.15 24.00
  Z"
/>
<path fill="#eff6ff" d="
  M 432.15 24.00
  Q 444.93 31.72 452.63 44.93
  Q 451.18 45.33 449.99 45.66
  Q 448.41 46.10 447.04 47.33
  L 432.15 24.00
  Z"
/>
<path fill="#f24e66" d="
  M 420.19 26.78
  L 468.74 102.80
  L 460.88 103.26
  Q 446.17 103.74 431.43 106.68
  Q 413.95 110.36 396.39 116.09
  L 377.64 86.87
  C 395.01 68.11 409.04 49.56 419.50 27.24
  Q 419.61 27.01 420.19 26.78
  Z"
/>
<path fill="#29265d" d="
  M 282.13 47.54
  Q 284.62 53.79 282.83 59.47
  C 280.30 65.86 274.23 68.91 268.02 71.03
  Q 250.40 75.17 230.99 74.06
  Q 216.41 73.22 209.80 72.58
  Q 209.15 72.52 209.50 73.07
  Q 215.33 82.14 220.06 91.58
  Q 221.58 94.61 222.34 97.92
  Q 222.67 99.39 221.47 100.22
  A 1.49 1.47 42.4 0 1 219.90 100.28
  C 217.04 98.64 212.98 96.41 209.74 97.70
  Q 202.83 100.45 204.30 107.90
  Q 205.35 113.23 211.77 121.21
  Q 200.44 114.47 192.62 107.55
  Q 187.43 101.94 184.46 97.75
  Q 178.96 89.98 178.63 80.75
  Q 178.25 75.10 180.45 69.05
  Q 183.45 62.52 191.07 61.62
  Q 191.64 61.56 191.83 61.30
  Q 192.05 60.99 192.12 60.44
  Q 194.23 54.22 199.93 47.72
  Q 206.83 40.98 215.74 37.53
  C 232.54 31.04 253.63 30.46 270.75 37.97
  Q 278.13 41.20 282.13 47.54
  Z"
/>
<path fill="#ffffff" d="
  M 129.94 64.14
  A 30.22 30.22 0.0 0 1 99.72 94.36
  A 30.22 30.22 0.0 0 1 69.50 64.14
  A 30.22 30.22 0.0 0 1 99.72 33.92
  A 30.22 30.22 0.0 0 1 129.94 64.14
  Z
  M 108.12 53.37
  A 8.40 8.40 0.0 0 0 99.72 44.97
  A 8.40 8.40 0.0 0 0 91.32 53.37
  A 8.40 8.40 0.0 0 0 99.72 61.77
  A 8.40 8.40 0.0 0 0 108.12 53.37
  Z
  M 118.51 78.71
  Q 114.05 67.82 103.30 65.73
  C 93.65 63.85 84.50 69.42 81.03 78.60
  A 0.54 0.54 0.0 0 0 81.53 79.33
  L 118.10 79.33
  A 0.45 0.45 0.0 0 0 118.51 78.71
  Z"
/>
<path fill="#f24e66" d="
  M 452.63 44.93
  Q 461.05 44.53 465.22 50.74
  C 469.49 57.08 467.90 65.48 461.39 69.63
  L 447.04 47.33
  Q 448.41 46.10 449.99 45.66
  Q 451.18 45.33 452.63 44.93
  Z"
/>
<circle fill="#d9e5f1" cx="99.72" cy="53.37" r="8.40"/>
<path fill="#d9e5f1" d="
  M 282.83 59.47
  Q 284.62 53.79 282.13 47.54
  L 313.90 47.48
  Q 314.64 47.48 314.65 48.22
  L 314.72 58.70
  A 0.76 0.76 0.0 0 1 313.96 59.47
  L 282.83 59.47
  Z"
/>
<path fill="#d9e5f1" d="
  M 199.93 47.72
  Q 194.23 54.22 192.12 60.44
  Q 191.41 59.35 190.24 59.36
  Q 166.82 59.61 146.32 59.44
  Q 145.66 59.43 145.66 58.77
  L 145.70 48.11
  Q 145.70 47.50 146.30 47.51
  L 199.93 47.72
  Z"
/>
<path fill="#d9e5f1" d="
  M 118.51 78.71
  A 0.45 0.45 0.0 0 1 118.10 79.33
  L 81.53 79.33
  A 0.54 0.54 0.0 0 1 81.03 78.60
  C 84.50 69.42 93.65 63.85 103.30 65.73
  Q 114.05 67.82 118.51 78.71
  Z"
/>
<path fill="#d9e5f1" d="
  M 180.45 69.05
  Q 178.25 75.10 178.63 80.75
  L 146.10 80.76
  A 0.43 0.43 0.0 0 1 145.67 80.33
  L 145.67 69.33
  A 0.50 0.49 -89.4 0 1 146.17 68.83
  L 180.45 69.05
  Z"
/>
<path fill="#f9b29c" d="
  M 268.02 71.03
  Q 275.40 88.95 278.37 107.75
  Q 278.77 111.03 279.07 113.77
  C 280.06 122.68 280.93 139.61 270.84 144.25
  C 264.04 147.37 256.33 147.24 248.91 145.17
  Q 248.05 144.93 248.01 145.82
  L 247.21 164.38
  L 246.52 188.84
  A 0.33 0.33 0.0 0 1 245.99 189.09
  L 211.16 163.27
  L 216.12 127.01
  A 2.68 2.67 26.3 0 0 215.35 124.75
  L 211.77 121.21
  Q 205.35 113.23 204.30 107.90
  Q 202.83 100.45 209.74 97.70
  C 212.98 96.41 217.04 98.64 219.90 100.28
  A 1.49 1.47 42.4 0 0 221.47 100.22
  Q 222.67 99.39 222.34 97.92
  Q 221.58 94.61 220.06 91.58
  Q 215.33 82.14 209.50 73.07
  Q 209.15 72.52 209.80 72.58
  Q 216.41 73.22 230.99 74.06
  Q 250.40 75.17 268.02 71.03
  Z
  M 266.17 88.65
  L 268.74 90.81
  Q 269.23 91.22 269.76 90.87
  L 270.08 90.65
  A 0.54 0.53 54.9 0 0 270.21 89.89
  Q 268.78 87.96 266.73 86.90
  A 2.25 2.25 0.0 0 0 263.64 87.99
  Q 262.66 90.20 263.60 92.49
  Q 263.91 93.26 264.70 93.03
  L 265.04 92.93
  A 0.56 0.55 72.2 0 0 265.41 92.20
  Q 264.80 90.51 265.32 88.90
  A 0.53 0.53 0.0 0 1 266.17 88.65
  Z
  M 255.68 88.65
  Q 259.06 99.46 268.27 105.21
  A 0.85 0.85 0.0 0 0 269.46 104.92
  L 269.65 104.58
  A 0.58 0.57 31.5 0 0 269.46 103.81
  Q 260.61 98.14 257.56 88.32
  Q 257.30 87.47 256.44 87.72
  L 256.13 87.81
  A 0.67 0.66 -17.0 0 0 255.68 88.65
  Z
  M 243.35 91.31
  C 245.65 90.87 247.43 93.20 248.64 94.87
  A 0.54 0.54 0.0 0 0 249.40 94.99
  L 249.64 94.81
  Q 250.29 94.32 249.89 93.61
  C 248.35 90.93 245.21 88.20 242.00 89.81
  C 239.54 91.04 239.86 93.85 241.19 95.83
  Q 241.65 96.52 242.40 96.16
  Q 242.76 95.98 242.97 95.65
  Q 243.26 95.22 242.92 94.83
  C 242.00 93.78 241.34 91.69 243.35 91.31
  Z
  M 267.58 123.53
  Q 261.58 126.55 256.65 124.73
  Q 255.77 124.41 255.75 125.34
  L 255.73 125.71
  Q 255.71 126.36 256.33 126.55
  Q 262.70 128.51 268.20 125.20
  Q 269.08 124.67 268.42 123.89
  L 268.23 123.66
  A 0.54 0.53 -33.3 0 0 267.58 123.53
  Z"
/>
<path fill="#29265d" d="
  M 377.64 86.87
  L 396.39 116.09
  Q 399.14 120.84 393.68 123.73
  L 385.42 129.09
  Q 382.60 127.54 380.28 130.28
  Q 378.50 132.40 377.14 134.53
  Q 371.31 137.70 368.43 130.74
  L 352.71 106.23
  Q 351.13 104.51 350.51 103.01
  C 349.16 99.79 350.91 97.94 353.66 96.20
  Q 362.13 90.81 370.24 85.54
  Q 374.75 82.60 377.64 86.87
  Z"
/>
<path fill="#15144f" d="
  M 265.32 88.90
  Q 264.80 90.51 265.41 92.20
  A 0.56 0.55 72.2 0 1 265.04 92.93
  L 264.70 93.03
  Q 263.91 93.26 263.60 92.49
  Q 262.66 90.20 263.64 87.99
  A 2.25 2.25 0.0 0 1 266.73 86.90
  Q 268.78 87.96 270.21 89.89
  A 0.54 0.53 54.9 0 1 270.08 90.65
  L 269.76 90.87
  Q 269.23 91.22 268.74 90.81
  L 266.17 88.65
  A 0.53 0.53 0.0 0 0 265.32 88.90
  Z"
/>
<path fill="#15144f" d="
  M 255.68 88.65
  A 0.67 0.66 -17.0 0 1 256.13 87.81
  L 256.44 87.72
  Q 257.30 87.47 257.56 88.32
  Q 260.61 98.14 269.46 103.81
  A 0.58 0.57 31.5 0 1 269.65 104.58
  L 269.46 104.92
  A 0.85 0.85 0.0 0 1 268.27 105.21
  Q 259.06 99.46 255.68 88.65
  Z"
/>
<path fill="#15144f" d="
  M 243.35 91.31
  C 241.34 91.69 242.00 93.78 242.92 94.83
  Q 243.26 95.22 242.97 95.65
  Q 242.76 95.98 242.40 96.16
  Q 241.65 96.52 241.19 95.83
  C 239.86 93.85 239.54 91.04 242.00 89.81
  C 245.21 88.20 248.35 90.93 249.89 93.61
  Q 250.29 94.32 249.64 94.81
  L 249.40 94.99
  A 0.54 0.54 0.0 0 1 248.64 94.87
  C 247.43 93.20 245.65 90.87 243.35 91.31
  Z"
/>
<path fill="#eff6ff" d="
  M 460.88 103.26
  L 460.88 261.14
  L 442.56 261.16
  L 442.53 108.49
  A 0.77 0.77 0.0 0 0 441.70 107.72
  Q 436.57 108.13 431.43 106.68
  Q 446.17 103.74 460.88 103.26
  Z"
/>
<path fill="#f24e66" d="
  M 352.71 106.23
  L 368.43 130.74
  Q 358.31 135.56 351.51 129.81
  C 344.30 123.71 344.28 114.87 350.43 107.76
  L 352.71 106.23
  Z"
/>
<path fill="#ffffff" d="
  M 192.62 107.55
  Q 200.44 114.47 211.77 121.21
  L 215.35 124.75
  A 2.68 2.67 26.3 0 1 216.12 127.01
  L 211.16 163.27
  Q 193.89 163.98 176.50 169.97
  Q 170.64 171.99 165.74 175.38
  Q 162.33 176.49 159.07 179.32
  Q 154.81 183.01 150.71 188.49
  Q 143.99 197.50 138.40 206.99
  Q 120.29 237.74 110.45 268.88
  Q 106.85 280.28 105.84 291.82
  C 105.31 297.77 106.29 303.78 110.10 308.62
  Q 115.89 315.97 124.54 319.94
  Q 136.54 325.45 152.26 326.19
  Q 153.84 349.36 155.68 371.51
  Q 155.79 372.84 156.77 373.46
  Q 157.44 373.89 159.83 374.94
  L 156.97 425.30
  Q 156.45 425.74 154.75 425.74
  Q 111.25 425.72 67.81 425.75
  Q 67.23 425.75 67.23 425.16
  L 67.21 182.09
  L 89.95 182.07
  Q 91.08 182.07 92.06 182.65
  L 107.75 192.02
  A 0.32 0.32 0.0 0 0 108.23 191.75
  L 108.17 182.58
  Q 108.17 182.00 108.76 181.98
  C 121.47 181.65 131.76 173.79 135.67 161.99
  C 140.73 146.73 131.90 130.75 117.00 125.79
  Q 113.00 124.46 100.80 124.48
  Q 84.01 124.51 67.19 124.47
  L 67.26 108.14
  A 0.42 0.42 0.0 0 1 67.68 107.72
  L 192.62 107.55
  Z"
/>
<path fill="#ffffff" d="
  M 431.43 106.68
  Q 436.57 108.13 441.70 107.72
  A 0.77 0.77 0.0 0 1 442.53 108.49
  L 442.56 261.16
  Q 424.25 261.19 405.95 261.19
  Q 399.04 261.18 395.06 262.46
  C 381.72 266.73 373.40 279.66 375.23 293.66
  C 377.08 307.80 388.79 318.27 403.20 318.63
  Q 403.82 318.64 403.82 319.26
  L 403.79 328.27
  A 0.41 0.41 0.0 0 0 404.41 328.62
  Q 411.97 324.10 419.17 319.74
  Q 420.83 318.75 423.08 318.73
  Q 433.27 318.64 442.57 318.73
  L 442.53 425.15
  Q 442.53 425.74 441.95 425.74
  L 296.93 425.76
  L 295.47 379.19
  C 297.14 378.64 298.12 378.05 298.37 376.14
  Q 304.25 330.37 307.48 284.23
  Q 316.98 290.86 326.75 292.74
  C 339.33 295.15 350.02 290.03 358.01 280.50
  Q 367.97 268.62 375.15 251.40
  C 385.63 226.24 392.51 199.89 397.10 173.36
  L 403.55 168.90
  Q 409.09 166.25 413.42 163.14
  Q 417.59 160.14 414.33 155.73
  Q 421.41 141.62 414.63 127.44
  C 412.42 122.83 408.63 119.14 403.07 121.33
  Q 399.85 122.60 395.69 126.73
  L 393.68 123.73
  Q 399.14 120.84 396.39 116.09
  Q 413.95 110.36 431.43 106.68
  Z"
/>
<path fill="#ffffff" d="
  M 350.43 107.76
  C 344.28 114.87 344.30 123.71 351.51 129.81
  Q 358.31 135.56 368.43 130.74
  Q 371.31 137.70 377.14 134.53
  L 369.72 152.97
  L 335.71 220.09
  A 0.26 0.26 0.0 0 1 335.24 220.08
  Q 328.96 206.66 318.34 196.16
  Q 308.38 186.29 295.32 179.55
  Q 293.05 177.83 289.52 176.22
  Q 269.37 167.07 247.21 164.38
  L 248.01 145.82
  Q 248.05 144.93 248.91 145.17
  C 256.33 147.24 264.04 147.37 270.84 144.25
  C 280.93 139.61 280.06 122.68 279.07 113.77
  Q 278.77 111.03 278.37 107.75
  L 350.43 107.76
  Z"
/>
<path fill="#f9b29c" d="
  M 414.33 155.73
  L 395.69 126.73
  Q 399.85 122.60 403.07 121.33
  C 408.63 119.14 412.42 122.83 414.63 127.44
  Q 421.41 141.62 414.33 155.73
  Z"
/>
<path fill="#15144f" d="
  M 267.58 123.53
  A 0.54 0.53 -33.3 0 1 268.23 123.66
  L 268.42 123.89
  Q 269.08 124.67 268.20 125.20
  Q 262.70 128.51 256.33 126.55
  Q 255.71 126.36 255.73 125.71
  L 255.75 125.34
  Q 255.77 124.41 256.65 124.73
  Q 261.58 126.55 267.58 123.53
  Z"
/>
<path fill="#f24e66" d="
  M 393.68 123.73
  L 395.69 126.73
  L 414.33 155.73
  Q 417.59 160.14 413.42 163.14
  Q 409.09 166.25 403.55 168.90
  C 401.96 168.39 400.88 167.99 399.91 166.52
  Q 392.30 155.00 385.20 143.55
  A 1.90 1.88 42.5 0 1 385.11 141.71
  C 386.91 138.03 388.70 132.57 385.42 129.09
  L 393.68 123.73
  Z"
/>
<path fill="#96d5ff" d="
  M 48.00 124.48
  L 67.19 124.47
  Q 84.01 124.51 100.80 124.48
  Q 113.00 124.46 117.00 125.79
  C 131.90 130.75 140.73 146.73 135.67 161.99
  C 131.76 173.79 121.47 181.65 108.76 181.98
  Q 108.17 182.00 108.17 182.58
  L 108.23 191.75
  A 0.32 0.32 0.0 0 1 107.75 192.02
  L 92.06 182.65
  Q 91.08 182.07 89.95 182.07
  L 67.21 182.09
  L 47.98 182.07
  C 41.83 181.87 36.82 181.83 31.33 179.13
  C 5.75 166.57 11.86 129.02 40.01 124.77
  C 42.65 124.37 45.35 124.54 48.00 124.48
  Z
  M 57.97 153.25
  A 7.40 7.40 0.0 0 0 50.57 145.85
  A 7.40 7.40 0.0 0 0 43.17 153.25
  A 7.40 7.40 0.0 0 0 50.57 160.65
  A 7.40 7.40 0.0 0 0 57.97 153.25
  Z
  M 83.48 153.25
  A 7.40 7.40 0.0 0 0 76.08 145.85
  A 7.40 7.40 0.0 0 0 68.68 153.25
  A 7.40 7.40 0.0 0 0 76.08 160.65
  A 7.40 7.40 0.0 0 0 83.48 153.25
  Z
  M 108.98 153.25
  A 7.40 7.40 0.0 0 0 101.58 145.85
  A 7.40 7.40 0.0 0 0 94.18 153.25
  A 7.40 7.40 0.0 0 0 101.58 160.65
  A 7.40 7.40 0.0 0 0 108.98 153.25
  Z"
/>
<path fill="#f9b29c" d="
  M 385.42 129.09
  C 388.70 132.57 386.91 138.03 385.11 141.71
  A 1.90 1.88 42.5 0 0 385.20 143.55
  Q 392.30 155.00 399.91 166.52
  C 400.88 167.99 401.96 168.39 403.55 168.90
  L 397.10 173.36
  L 369.72 152.97
  L 377.14 134.53
  Q 378.50 132.40 380.28 130.28
  Q 382.60 127.54 385.42 129.09
  Z"
/>
<circle fill="#ffffff" cx="50.57" cy="153.25" r="7.40"/>
<circle fill="#ffffff" cx="76.08" cy="153.25" r="7.40"/>
<circle fill="#ffffff" cx="101.58" cy="153.25" r="7.40"/>
<path fill="#fc942c" d="
  M 369.72 152.97
  L 397.10 173.36
  C 392.51 199.89 385.63 226.24 375.15 251.40
  Q 367.97 268.62 358.01 280.50
  C 350.02 290.03 339.33 295.15 326.75 292.74
  Q 316.98 290.86 307.48 284.23
  Q 308.46 269.50 309.09 248.75
  Q 309.70 228.84 308.26 211.00
  Q 307.63 203.18 305.51 194.50
  Q 303.42 185.91 295.32 179.55
  Q 308.38 186.29 318.34 196.16
  Q 328.96 206.66 335.24 220.08
  A 0.26 0.26 0.0 0 0 335.71 220.09
  L 369.72 152.97
  Z"
/>
<path fill="#feb630" d="
  M 211.16 163.27
  L 245.99 189.09
  A 0.33 0.33 0.0 0 0 246.52 188.84
  L 247.21 164.38
  Q 269.37 167.07 289.52 176.22
  Q 293.05 177.83 295.32 179.55
  Q 303.42 185.91 305.51 194.50
  Q 307.63 203.18 308.26 211.00
  Q 309.70 228.84 309.09 248.75
  Q 308.46 269.50 307.48 284.23
  Q 304.25 330.37 298.37 376.14
  C 298.12 378.05 297.14 378.64 295.47 379.19
  Q 290.07 380.44 284.50 380.89
  Q 268.56 382.19 252.81 382.02
  C 226.25 382.09 197.33 380.77 170.75 377.21
  Q 167.10 376.73 159.83 374.94
  Q 157.44 373.89 156.77 373.46
  Q 155.79 372.84 155.68 371.51
  Q 153.84 349.36 152.26 326.19
  Q 161.41 326.78 170.50 326.20
  Q 190.82 324.90 210.74 320.63
  Q 223.02 318.00 234.88 314.69
  L 238.40 315.37
  Q 236.23 321.82 240.23 324.60
  Q 242.36 326.09 244.99 326.05
  Q 261.60 325.86 278.14 326.10
  C 281.85 326.15 285.13 324.83 286.15 320.93
  Q 292.40 297.00 298.61 272.57
  C 299.92 267.43 297.05 263.58 292.04 263.58
  Q 272.55 263.55 256.78 263.60
  C 250.67 263.62 250.10 269.95 248.93 274.36
  C 242.83 271.03 238.83 276.92 236.98 281.81
  L 166.80 271.67
  A 0.39 0.38 16.0 0 1 166.50 271.14
  Q 177.50 243.68 183.11 217.63
  Q 185.45 206.81 185.65 196.46
  Q 185.76 191.30 184.62 186.23
  Q 181.59 172.75 165.74 175.38
  Q 170.64 171.99 176.50 169.97
  Q 193.89 163.98 211.16 163.27
  Z"
/>
<path fill="#fc942c" d="
  M 165.74 175.38
  Q 181.59 172.75 184.62 186.23
  Q 185.76 191.30 185.65 196.46
  Q 185.45 206.81 183.11 217.63
  Q 177.50 243.68 166.50 271.14
  A 0.39 0.38 16.0 0 0 166.80 271.67
  L 236.98 281.81
  L 234.88 314.69
  Q 223.02 318.00 210.74 320.63
  Q 190.82 324.90 170.50 326.20
  Q 161.41 326.78 152.26 326.19
  Q 136.54 325.45 124.54 319.94
  Q 115.89 315.97 110.10 308.62
  C 106.29 303.78 105.31 297.77 105.84 291.82
  Q 106.85 280.28 110.45 268.88
  Q 120.29 237.74 138.40 206.99
  Q 143.99 197.50 150.71 188.49
  Q 154.81 183.01 159.07 179.32
  Q 162.33 176.49 165.74 175.38
  Z"
/>
<path fill="#eff6ff" d="
  M 47.98 182.07
  L 67.21 182.09
  L 67.23 425.16
  Q 67.23 425.75 67.81 425.75
  Q 111.25 425.72 154.75 425.74
  Q 156.45 425.74 156.97 425.30
  Q 156.85 425.53 157.09 425.70
  Q 157.22 425.79 157.43 425.78
  Q 198.81 425.64 240.31 425.88
  L 296.93 425.76
  L 441.95 425.74
  Q 442.53 425.74 442.53 425.15
  L 442.57 318.73
  L 460.87 318.70
  Q 460.87 378.13 460.89 437.25
  Q 460.89 460.81 443.38 479.06
  Q 430.63 492.34 411.31 495.93
  Q 405.35 497.03 391.70 497.00
  Q 254.67 496.75 117.73 497.01
  Q 104.13 497.04 98.05 496.04
  C 73.62 492.03 54.16 473.03 49.13 448.54
  Q 47.98 442.92 47.98 429.25
  Q 47.99 305.68 47.98 182.07
  Z
  M 93.78 450.07
  Q 88.46 447.48 84.22 449.97
  Q 76.97 454.22 79.83 462.87
  C 81.84 468.93 88.54 474.57 93.73 477.88
  A 1.03 1.02 -45.3 0 0 94.85 477.87
  Q 103.56 472.16 107.66 465.18
  C 110.49 460.35 110.27 454.18 105.49 450.74
  Q 100.50 447.14 94.73 450.07
  Q 94.26 450.31 93.78 450.07
  Z
  M 181.58 477.94
  A 0.76 0.76 0.0 0 0 183.02 477.96
  L 191.79 452.96
  A 0.76 0.76 0.0 0 0 190.82 451.99
  L 165.80 460.75
  A 0.76 0.76 0.0 0 0 165.82 462.19
  L 177.33 465.86
  A 0.76 0.76 0.0 0 1 177.82 466.35
  L 181.58 477.94
  Z
  M 124.97 472.32
  L 124.95 474.53
  A 1.05 1.05 0.0 0 0 126.43 475.49
  C 129.20 474.24 132.08 471.79 135.31 471.84
  Q 141.58 471.94 147.88 471.83
  C 161.14 471.62 161.15 452.07 146.82 452.19
  Q 135.59 452.29 126.35 452.24
  C 113.88 452.19 112.29 469.86 124.42 471.67
  Q 124.97 471.75 124.97 472.32
  Z"
/>
<path fill="#96d5ff" d="
  M 460.88 261.14
  Q 464.34 261.23 467.81 261.21
  C 485.95 261.15 499.43 276.87 496.45 294.73
  C 494.08 308.97 481.67 318.87 467.25 318.63
  Q 463.85 318.58 460.87 318.70
  L 442.57 318.73
  Q 433.27 318.64 423.08 318.73
  Q 420.83 318.75 419.17 319.74
  Q 411.97 324.10 404.41 328.62
  A 0.41 0.41 0.0 0 1 403.79 328.27
  L 403.82 319.26
  Q 403.82 318.64 403.20 318.63
  C 388.79 318.27 377.08 307.80 375.23 293.66
  C 373.40 279.66 381.72 266.73 395.06 262.46
  Q 399.04 261.18 405.95 261.19
  Q 424.25 261.19 442.56 261.16
  L 460.88 261.14
  Z
  M 417.83 289.88
  A 7.40 7.40 0.0 0 0 410.43 282.48
  A 7.40 7.40 0.0 0 0 403.03 289.88
  A 7.40 7.40 0.0 0 0 410.43 297.28
  A 7.40 7.40 0.0 0 0 417.83 289.88
  Z
  M 443.33 289.89
  A 7.40 7.40 0.0 0 0 435.93 282.49
  A 7.40 7.40 0.0 0 0 428.53 289.89
  A 7.40 7.40 0.0 0 0 435.93 297.29
  A 7.40 7.40 0.0 0 0 443.33 289.89
  Z
  M 468.84 289.88
  A 7.40 7.40 0.0 0 0 461.44 282.48
  A 7.40 7.40 0.0 0 0 454.04 289.88
  A 7.40 7.40 0.0 0 0 461.44 297.28
  A 7.40 7.40 0.0 0 0 468.84 289.88
  Z"
/>
<path fill="#15144f" d="
  M 238.40 315.37
  Q 240.47 315.69 246.75 316.37
  C 255.10 317.28 265.12 316.78 272.01 312.21
  C 277.32 308.69 280.69 301.07 277.31 295.42
  C 272.46 287.31 256.12 285.77 247.04 285.53
  Q 246.09 285.50 246.89 284.99
  C 249.51 283.30 253.86 279.21 250.56 275.95
  Q 249.64 275.03 248.93 274.36
  C 250.10 269.95 250.67 263.62 256.78 263.60
  Q 272.55 263.55 292.04 263.58
  C 297.05 263.58 299.92 267.43 298.61 272.57
  Q 292.40 297.00 286.15 320.93
  C 285.13 324.83 281.85 326.15 278.14 326.10
  Q 261.60 325.86 244.99 326.05
  Q 242.36 326.09 240.23 324.60
  Q 236.23 321.82 238.40 315.37
  Z"
/>
<path fill="#f9b29c" d="
  M 248.93 274.36
  Q 249.64 275.03 250.56 275.95
  C 253.86 279.21 249.51 283.30 246.89 284.99
  Q 246.09 285.50 247.04 285.53
  C 256.12 285.77 272.46 287.31 277.31 295.42
  C 280.69 301.07 277.32 308.69 272.01 312.21
  C 265.12 316.78 255.10 317.28 246.75 316.37
  Q 240.47 315.69 238.40 315.37
  L 234.88 314.69
  L 236.98 281.81
  C 238.83 276.92 242.83 271.03 248.93 274.36
  Z"
/>
<circle fill="#ffffff" cx="410.43" cy="289.88" r="7.40"/>
<circle fill="#ffffff" cx="435.93" cy="289.89" r="7.40"/>
<circle fill="#ffffff" cx="461.44" cy="289.88" r="7.40"/>
<path fill="#393982" d="
  M 159.83 374.94
  Q 167.10 376.73 170.75 377.21
  C 197.33 380.77 226.25 382.09 252.81 382.02
  L 240.31 425.88
  Q 198.81 425.64 157.43 425.78
  Q 157.22 425.79 157.09 425.70
  Q 156.85 425.53 156.97 425.30
  L 159.83 374.94
  Z"
/>
<path fill="#29265d" d="
  M 295.47 379.19
  L 296.93 425.76
  L 240.31 425.88
  L 252.81 382.02
  Q 268.56 382.19 284.50 380.89
  Q 290.07 380.44 295.47 379.19
  Z"
/>
<path fill="#d9e5f1" d="
  M 94.73 450.07
  Q 100.50 447.14 105.49 450.74
  C 110.27 454.18 110.49 460.35 107.66 465.18
  Q 103.56 472.16 94.85 477.87
  A 1.03 1.02 -45.3 0 1 93.73 477.88
  C 88.54 474.57 81.84 468.93 79.83 462.87
  Q 76.97 454.22 84.22 449.97
  Q 88.46 447.48 93.78 450.07
  Q 94.26 450.31 94.73 450.07
  Z"
/>
<path fill="#d9e5f1" d="
  M 181.58 477.94
  L 177.82 466.35
  A 0.76 0.76 0.0 0 0 177.33 465.86
  L 165.82 462.19
  A 0.76 0.76 0.0 0 1 165.80 460.75
  L 190.82 451.99
  A 0.76 0.76 0.0 0 1 191.79 452.96
  L 183.02 477.96
  A 0.76 0.76 0.0 0 1 181.58 477.94
  Z"
/>
<path fill="#d9e5f1" d="
  M 124.42 471.67
  C 112.29 469.86 113.88 452.19 126.35 452.24
  Q 135.59 452.29 146.82 452.19
  C 161.15 452.07 161.14 471.62 147.88 471.83
  Q 141.58 471.94 135.31 471.84
  C 132.08 471.79 129.20 474.24 126.43 475.49
  A 1.05 1.05 0.0 0 1 124.95 474.53
  L 124.97 472.32
  Q 124.97 471.75 124.42 471.67
  Z"
/>
</svg>
