<svg width="52" height="51" viewBox="0 0 52 51" fill="none" xmlns="http://www.w3.org/2000/svg">
<path d="M33.1871 35.0471C33.1871 35.629 33.4977 36.1668 34.0014 36.4577C34.5055 36.7483 35.1262 36.7483 35.6299 36.4577C36.134 36.1668 36.4442 35.629 36.4442 35.0471V4.12931C36.4442 3.54743 36.134 3.01 35.6299 2.7191C35.1263 2.42816 34.5054 2.42816 34.0014 2.7191C33.4977 3.01004 33.1871 3.54745 33.1871 4.12931V5.51068L3.25706 16.0102V15.4787V15.4791C3.25706 14.8972 2.94648 14.3594 2.4428 14.0685C1.93874 13.7779 1.31799 13.7779 0.814265 14.0685C0.310212 14.3594 0 14.8972 0 15.4791V23.6988C0 24.2804 0.310212 24.8181 0.814265 25.1091C1.31795 25.4 1.93879 25.4 2.4428 25.1091C2.94648 24.8181 3.25706 24.2803 3.25706 23.6988V22.8749L8.53328 24.724V26.9077L8.53291 26.9081C8.55366 29.0396 9.56625 31.0399 11.2718 32.3182C12.9775 33.5969 15.1816 34.0076 17.233 33.429C19.2848 32.8504 20.9496 31.349 21.7365 29.368L33.1601 33.3741L33.1871 35.0471ZM15.361 30.4991C14.4089 30.4976 13.496 30.1188 12.8229 29.4454C12.1495 28.772 11.7707 27.8595 11.7693 26.9074V25.8448L18.6767 28.2676C18.4065 28.9255 17.9473 29.4888 17.3573 29.8862C16.7673 30.2835 16.0723 30.4966 15.3611 30.4992L15.361 30.4991ZM31.5561 14.1711C31.5558 14.627 31.2211 15.0139 30.7697 15.0799L7.56662 18.5123C7.41985 18.5475 7.27234 18.457 7.23713 18.3103C7.20192 18.1635 7.29235 18.016 7.43912 17.9808L30.8177 9.81441C30.9889 9.74103 31.1861 9.76289 31.337 9.87149C31.4882 9.98008 31.5716 10.1602 31.5564 10.3455L31.5561 14.1711ZM50.1262 25.1488L45.6205 22.3168H45.6209C45.2728 22.1037 44.8555 22.0355 44.4582 22.127C44.0605 22.2182 43.7151 22.4621 43.4953 22.8056L40.6633 27.3113C40.4436 27.6638 40.3728 28.0889 40.4662 28.4933C40.5599 28.898 40.8105 29.2486 41.163 29.4683C41.5151 29.6885 41.9402 29.7593 42.3449 29.6655C42.7492 29.5717 43.1002 29.3212 43.32 28.9691L44.1543 27.6408C45.7854 33.4856 43.0332 40.0312 37.3481 42.6082L37.3477 42.6078C36.0727 43.1864 34.7096 43.5459 33.3149 43.6708C32.8535 42.0549 31.6489 40.7565 30.0723 40.1757C28.4957 39.595 26.7367 39.8014 25.3372 40.7313C23.9381 41.6616 23.0667 43.2034 22.9918 44.882C22.917 46.5605 23.6475 48.1739 24.9584 49.2249C26.2697 50.2757 28.0035 50.6382 29.6254 50.1996C31.2477 49.7616 32.563 48.5756 33.1663 47.0074C33.1663 46.9436 33.2034 46.8799 33.2249 46.8161C35.0844 46.689 36.9056 46.2283 38.602 45.4556C45.6472 42.257 49.0635 34.2549 47.1405 26.9548L48.4688 27.7891V27.7887C48.8164 28.0018 49.2338 28.07 49.6311 27.9788C50.0288 27.8873 50.3742 27.6434 50.5939 27.2999C50.8174 26.9526 50.8938 26.5308 50.8059 26.1272C50.7181 25.7236 50.4739 25.3715 50.1262 25.1481L50.1262 25.1488ZM30.2383 45.9191C30.0389 46.4554 29.6345 46.8905 29.1145 47.1284C28.5941 47.3667 28.0008 47.3886 27.4644 47.1892C26.9281 46.9898 26.493 46.5855 26.2547 46.0655C26.0164 45.5451 25.9949 44.9514 26.1943 44.4154C26.3937 43.8791 26.798 43.444 27.3184 43.2057C27.8384 42.9677 28.4321 42.9458 28.9681 43.1452C29.5037 43.3461 29.9377 43.7505 30.1757 44.2701C30.4136 44.7897 30.4362 45.3827 30.2383 45.919L30.2383 45.9191ZM15.6266 42.9222C16.0225 43.3143 16.1789 43.8877 16.0373 44.4265C15.8957 44.965 15.4777 45.3876 14.9403 45.5344C14.4029 45.6811 13.828 45.5299 13.4322 45.1378L11.7958 43.5437L10.2018 45.18V45.1804C9.80964 45.5762 9.23626 45.7326 8.69743 45.591C8.15891 45.4494 7.73638 45.0314 7.5896 44.494C7.44283 43.9566 7.59405 43.3817 7.98618 42.9859L9.58027 41.3496L7.94395 39.7555H7.94358C7.54775 39.3634 7.39135 38.79 7.53293 38.2514C7.67451 37.7125 8.09258 37.2904 8.62994 37.1436C9.16735 36.9968 9.74222 37.1477 10.1381 37.5398L11.7744 39.1339L13.3685 37.4976V37.4972C13.6605 37.2044 14.0571 37.0395 14.4711 37.0395C14.8847 37.0395 15.2813 37.2044 15.5733 37.4972C15.8665 37.7893 16.031 38.1862 16.031 38.5998C16.031 39.0134 15.8665 39.41 15.5733 39.7024L13.9792 41.3387L15.6266 42.9222ZM51.5238 15.6592C51.2317 15.9524 50.8348 16.1169 50.4212 16.1169C50.0075 16.1169 49.6106 15.9524 49.3186 15.6592L47.6822 14.0651L46.0882 15.7014V15.7018C45.696 16.0976 45.1227 16.254 44.5841 16.1124C44.0452 15.9709 43.6231 15.5528 43.4763 15.0154C43.3295 14.478 43.4804 13.9032 43.8725 13.5073L45.4666 11.871L43.8303 10.2769H43.8299C43.4341 9.88479 43.2777 9.3114 43.4192 8.77286C43.5608 8.23397 43.9789 7.81144 44.5163 7.66466C45.0536 7.51788 45.6285 7.6691 46.0244 8.06123L47.6607 9.65532L49.2548 8.01901V8.01864C49.5468 7.72584 49.9438 7.56091 50.3574 7.56091C50.771 7.56091 51.1679 7.72584 51.46 8.01864C51.7528 8.31069 51.9177 8.70726 51.9177 9.12124C51.9177 9.53487 51.7528 9.93144 51.46 10.2235L49.8978 11.8335L51.5341 13.4276C51.8339 13.7222 52.0022 14.1255 52 14.5458C51.9981 14.966 51.8262 15.3674 51.5237 15.6591L51.5238 15.6592ZM0.483701 2.70515C0.190909 2.4131 0.0259787 2.01653 0.0259787 1.60254C0.0259787 1.18892 0.190909 0.792348 0.483701 0.500315C0.775753 0.207153 1.1727 0.0425925 1.58631 0.0425925C1.99993 0.0425925 2.39687 0.207153 2.68892 0.500315L4.32523 2.0944L5.91932 0.458094V0.457723C6.21137 0.164561 6.60794 0 7.02192 0C7.43555 0 7.83212 0.164561 8.12415 0.457723C8.41731 0.749775 8.58187 1.14635 8.58187 1.56033C8.58187 1.97395 8.41731 2.37053 8.12415 2.66256L6.53006 4.29887L8.16637 5.89296L8.16674 5.89333C8.56258 6.28508 8.71898 6.85845 8.5774 7.39738C8.43582 7.93627 8.01775 8.35842 7.48039 8.5052C6.94297 8.65197 6.3681 8.50075 5.97226 8.109L4.33595 6.51491L2.74186 8.15122C2.35085 8.55483 1.77417 8.71902 1.22937 8.58189C0.684545 8.44513 0.254281 8.02781 0.100479 7.48745C-0.0533318 6.94707 0.092696 6.36558 0.483711 5.96234L2.0778 4.32602L0.483701 2.70515Z" fill="white"/>
</svg>
