<svg width="44" height="37" viewBox="0 0 44 37" fill="none" xmlns="http://www.w3.org/2000/svg">
<path d="M43.9641 4.02295C43.8172 1.80425 41.9674 0.0303475 39.7123 0.0101086C39.4336 0.0101086 39.1599 0 38.8812 0H4.74988C4.16709 0 3.59441 0.0151618 3.02683 0.192048C1.20239 0.758089 0.00642307 2.45113 0.00141903 4.34129C-0.00364868 6.0445 0.00648607 7.7527 0.00648607 9.45591V23.9457C0.00648607 24.0872 0.00141837 24.2337 0.00648607 24.3752C0.057164 25.5579 0.589281 26.7253 1.52178 27.4783C2.31235 28.1151 3.24484 28.4841 4.26854 28.4892C4.35469 28.4892 4.43578 28.4993 4.52193 28.4993H17.3434V33.9575H15.1693C14.4345 33.9575 13.6946 33.9524 12.9598 33.9676C12.9496 33.9676 12.9395 33.9727 12.9294 33.9727C12.1337 33.9727 11.3736 34.66 11.4091 35.4788C11.4445 36.3025 12.078 36.9848 12.9294 36.9848H28.8116C29.5465 36.9848 30.2863 37.0101 31.0212 36.9949C31.0313 36.9949 31.0415 37 31.0516 37C31.8472 37 32.6074 36.2925 32.5719 35.4737C32.5364 34.6499 31.903 33.9473 31.0516 33.9473H26.6173V28.5043H38.5167C38.8917 28.5043 39.2667 28.4942 39.6468 28.4942C41.304 28.4891 42.9053 27.5592 43.5895 26.0278C43.9544 25.2141 44 24.3954 44 23.5311V4.27092C44 4.18501 43.9899 4.10414 43.9645 4.02328L43.9641 4.02295ZM16.34 17.936C16.943 18.5374 16.8974 19.4775 16.34 20.0789C15.7825 20.6804 14.7538 20.6399 14.1912 20.0789L13.6135 19.5028C12.2705 18.1635 10.9276 16.8242 9.57956 15.4849C8.99677 14.9037 8.99677 13.9182 9.57956 13.3419L10.1573 12.7658C11.5002 11.4265 12.8432 10.0872 14.1862 8.74288C14.7893 8.14146 15.7268 8.18695 16.335 8.74288C16.938 9.29881 16.8975 10.3247 16.335 10.8858C16.1424 11.0778 15.9448 11.2699 15.7522 11.462C14.764 12.4475 13.791 13.4279 12.7977 14.4135C13.9835 15.5861 15.1643 16.7585 16.3401 17.9361L16.34 17.936ZM25.7049 7.9395C25.5225 8.50049 25.335 9.0665 25.1526 9.62755C24.3468 12.0888 23.541 14.545 22.7352 17.0063C22.2234 18.563 21.7166 20.1196 21.2047 21.6762C20.9412 22.4848 20.1709 22.9245 19.3347 22.7374C18.5593 22.5606 18.0273 21.6256 18.2705 20.8725C18.453 20.3115 18.6405 19.7455 18.8229 19.1845C19.6287 16.7232 20.4345 14.267 21.2402 11.8057C21.7521 10.249 22.2588 8.6924 22.7707 7.13586C23.0343 6.32723 23.8045 5.88752 24.6408 6.07456C25.4161 6.25145 25.9533 7.18641 25.7049 7.9395ZM34.4012 15.48C34.2087 15.6721 34.0161 15.8641 33.8235 16.0562C32.4806 17.3954 31.1376 18.7347 29.7896 20.0791C29.1865 20.6805 28.2439 20.635 27.6408 20.0791C27.0378 19.5231 27.0783 18.4972 27.6408 17.9362C27.8334 17.7441 28.026 17.5521 28.2185 17.36C29.2017 16.3796 30.2001 15.3991 31.1782 14.4135C29.9974 13.236 28.8216 12.0584 27.6409 10.8808C27.0378 10.2794 27.0834 9.33931 27.6409 8.73787C28.1983 8.13645 29.227 8.17688 29.7896 8.73787C29.9822 8.92992 30.1748 9.12197 30.3674 9.31402C31.7103 10.6533 33.0532 11.9926 34.4013 13.3369C34.979 13.9181 34.979 14.8986 34.4013 15.4799L34.4012 15.48Z" fill="white"/>
</svg>
