<svg width="268" height="66" viewBox="0 0 268 66" fill="none" xmlns="http://www.w3.org/2000/svg">
<path opacity="0.2" d="M266.697 56.496C267.248 56.4583 267.665 55.9811 267.627 55.4301L267.012 46.4511C266.975 45.9001 266.497 45.484 265.946 45.5217C265.395 45.5594 264.979 46.0367 265.017 46.5877L265.563 54.569L257.582 55.1152C257.031 55.153 256.615 55.6302 256.652 56.1812C256.69 56.7322 257.167 57.1483 257.718 57.1106L266.697 56.496ZM2.3168 65.7269C3.00612 65.0744 3.71266 64.4115 4.43622 63.7394L3.07501 62.2741C2.34674 62.9506 1.63563 63.6178 0.941878 64.2745L2.3168 65.7269ZM8.80722 59.7573C10.2356 58.4815 11.7185 57.1816 13.2547 55.8638L11.9525 54.3458C10.4057 55.6727 8.91278 56.9814 7.47488 58.2657L8.80722 59.7573ZM17.7801 52.0616C19.2723 50.834 20.8077 49.5964 22.3857 48.3533L21.148 46.7823C19.5586 48.0344 18.0121 49.2809 16.5095 50.5171L17.7801 52.0616ZM27.0731 44.7423C28.627 43.5721 30.2174 42.401 31.8435 41.2329L30.6766 39.6086C29.038 40.7857 27.4355 41.9657 25.87 43.1446L27.0731 44.7423ZM36.6698 37.8493C38.2738 36.7524 39.909 35.6614 41.575 34.5795L40.4857 32.9022C38.8061 33.9929 37.1575 35.0928 35.5408 36.1984L36.6698 37.8493ZM46.5664 31.4247C48.2309 30.4014 49.9233 29.3896 51.6431 28.3922L50.6396 26.6621C48.9047 27.6683 47.1976 28.6889 45.5189 29.7209L46.5664 31.4247ZM56.7902 25.4968C58.502 24.5636 60.2387 23.6466 61.9999 22.7481L61.091 20.9665C59.3132 21.8735 57.5604 22.7991 55.8329 23.7407L56.7902 25.4968ZM67.2938 20.1409C69.0629 19.3007 70.8549 18.4808 72.6692 17.6837L71.8647 15.8526C70.032 16.6578 68.2222 17.4859 66.4358 18.3342L67.2938 20.1409ZM78.0978 15.3955C79.9097 14.664 81.7424 13.9565 83.5954 13.2751L82.9051 11.398C81.0321 12.0867 79.18 12.8018 77.3491 13.5409L78.0978 15.3955ZM89.1675 11.3272C91.0241 10.7118 92.8997 10.1238 94.7941 9.56513L94.2284 7.64681C92.3123 8.21186 90.4155 8.80656 88.5383 9.42874L89.1675 11.3272ZM100.467 7.99646C102.362 7.50741 104.274 7.04868 106.203 6.62225L105.771 4.66938C103.819 5.10095 101.884 5.56515 99.9672 6.05994L100.467 7.99646ZM111.981 5.45302C113.9 5.10071 115.834 4.78114 117.784 4.49617L117.495 2.51719C115.52 2.80573 113.562 3.12928 111.62 3.48592L111.981 5.45302ZM123.635 3.75196C125.576 3.54182 127.531 3.36667 129.502 3.22828L129.361 1.23319C127.366 1.37337 125.385 1.55076 123.419 1.76358L123.635 3.75196ZM135.373 2.92772C137.328 2.86495 139.297 2.839 141.278 2.85154L141.291 0.851576C139.283 0.838876 137.289 0.865161 135.309 0.928755L135.373 2.92772ZM147.152 3.00127C149.098 3.08822 151.056 3.21288 153.026 3.37675L153.192 1.38363C151.196 1.21763 149.212 1.09135 147.241 1.00326L147.152 3.00127ZM158.902 3.97902C160.827 4.21356 162.763 4.48607 164.71 4.79791L165.026 2.8231C163.055 2.50728 161.094 2.23127 159.144 1.9937L158.902 3.97902ZM170.531 5.84288C172.432 6.22101 174.343 6.63716 176.264 7.09256L176.725 5.14652C174.781 4.6855 172.846 4.26417 170.921 3.88128L170.531 5.84288ZM181.977 8.55672C183.853 9.07332 185.737 9.62779 187.629 10.2213L188.228 8.3129C186.313 7.71245 184.407 7.15136 182.508 6.62853L181.977 8.55672ZM193.212 12.0775C195.052 12.7243 196.9 13.4085 198.755 14.1309L199.481 12.2672C197.605 11.5368 195.736 10.8449 193.875 10.1906L193.212 12.0775ZM204.191 16.3487C205.988 17.1157 207.792 17.919 209.603 18.7594L210.445 16.9453C208.616 16.0962 206.793 15.2844 204.976 14.5092L204.191 16.3487ZM214.885 21.3083C216.633 22.1838 218.386 23.0942 220.145 24.0405L221.093 22.2791C219.316 21.3238 217.546 20.4044 215.781 19.5202L214.885 21.3083ZM225.275 26.8929C226.968 27.8645 228.665 28.8696 230.368 29.9087L231.41 28.2016C229.692 27.1532 227.979 26.1391 226.271 25.1584L225.275 26.8929ZM235.356 33.0423C236.989 34.0975 238.626 35.1844 240.268 36.3034L241.394 34.6508C239.739 33.5226 238.088 32.4267 236.441 31.3625L235.356 33.0423ZM245.128 39.7024C246.7 40.8289 248.274 41.9852 249.853 43.1717L251.055 41.5729C249.464 40.3775 247.877 39.2124 246.294 38.077L245.128 39.7024ZM254.6 46.8226C256.109 48.0102 257.622 49.2258 259.138 50.4696L260.407 48.9235C258.88 47.671 257.357 46.4469 255.836 45.2507L254.6 46.8226ZM263.689 54.2816C264.449 54.9313 265.21 55.5881 265.972 56.2521L267.286 54.7446C266.52 54.0763 265.754 53.4152 264.989 52.7613L263.689 54.2816Z" fill="black"/>
</svg>
