<svg width="48" height="48" viewBox="0 0 48 48" fill="none" xmlns="http://www.w3.org/2000/svg">
<path fill-rule="evenodd" clip-rule="evenodd" d="M6.1548 23.9034L1.00331 24.0008C0.623169 24.0078 0.292848 23.8129 0.116061 23.476C-0.0607259 23.1394 -0.0345256 22.7566 0.187661 22.4473L9.24138 9.83198C9.47833 9.50129 9.87066 9.35513 10.2667 9.44999L17.2134 11.1101C16.2202 11.9862 15.2569 12.8919 14.3264 13.8224C11.5222 16.6266 8.97078 19.6977 6.76414 22.9942L6.1548 23.9034ZM4.5741 36.2041C4.87933 35.8989 5.37426 35.8989 5.67983 36.2041C5.98506 36.5093 5.98506 37.0043 5.67983 37.3098L2.74869 40.241C2.44347 40.5462 1.94854 40.5462 1.64296 40.241C1.33773 39.9358 1.33773 39.4408 1.64296 39.1353L4.5741 36.2041ZM10.4014 42.0314C10.7067 41.7262 11.2016 41.7262 11.5072 42.0314C11.8124 42.3367 11.8124 42.8316 11.5072 43.1372L8.57602 46.0683C8.27079 46.3735 7.77586 46.3735 7.47028 46.0683C7.16506 45.7631 7.16506 45.2682 7.47028 44.9626L10.4014 42.0314ZM7.48616 39.1158L1.95305 44.6482C1.64672 44.9546 1.64672 45.4517 1.95305 45.7584C2.25939 46.0647 2.75653 46.0647 3.06323 45.7584L8.59633 40.2253C8.90266 39.919 8.90266 39.4218 8.59633 39.1151C8.28963 38.8092 7.79249 38.8092 7.48616 39.1159V39.1158ZM8.06856 23.8672L23.8444 39.643C24.9848 38.8798 26.1156 38.0612 27.2324 37.1886L10.5231 20.4793C9.65064 21.5957 8.83207 22.727 8.06875 23.867L8.06856 23.8672ZM11.5116 19.2474L28.4628 36.1986C29.9342 34.9843 31.3774 33.6749 32.7784 32.2739C42.9287 22.1255 48.2603 9.78885 47.666 0.0448258C37.922 -0.549387 25.5854 4.78267 15.436 14.9325C14.0351 16.3327 12.7259 17.7759 11.5113 19.2473L11.5116 19.2474ZM37.1609 10.5502C39.4856 12.8749 39.4856 16.6443 37.1609 18.9691C34.8361 21.2938 31.0667 21.2938 28.7416 18.9691C26.4168 16.6443 26.4168 12.8749 28.7416 10.5502C31.0667 8.22572 34.8361 8.22572 37.1609 10.5502ZM35.9901 11.7209C37.6683 13.3991 37.6683 16.1202 35.9901 17.7985C34.3119 19.4767 31.5908 19.4767 29.9126 17.7985C28.2344 16.1202 28.2344 13.3991 29.9126 11.7209C31.5908 10.0435 34.3119 10.0435 35.9901 11.7209ZM19.7646 37.7831L16.575 40.9727C16.193 41.3547 15.5696 41.3547 15.1873 40.9727L6.73881 32.5234C6.35681 32.1414 6.35681 31.518 6.73881 31.1357L9.92836 27.9461L19.7646 37.7831ZM23.8085 41.5562L24.7179 40.9472C28.0138 38.7406 31.0852 36.1891 33.8898 33.3853C34.8202 32.4548 35.7256 31.4916 36.6021 30.4983L38.2622 37.445C38.357 37.8407 38.2105 38.233 37.8802 38.4703L25.2648 47.5241C24.9555 47.7463 24.5735 47.7725 24.2362 47.5957C23.8988 47.4189 23.7043 47.0893 23.7114 46.7084L23.8085 41.5562Z" fill="white"/>
</svg>
