<svg width="51" height="51" viewBox="0 0 51 51" fill="none" xmlns="http://www.w3.org/2000/svg">
<path d="M11.7764 11.7754H38.6253V38.6244H11.7764V11.7754Z" fill="white"/>
<path d="M12.2271 47.0752H8.52051C8.3834 47.0752 8.27246 47.1861 8.27246 47.3232C8.27246 47.4604 8.3834 47.5713 8.52051 47.5713H12.2271C12.3642 47.5713 12.4752 47.4604 12.4752 47.3232C12.4752 47.1869 12.3642 47.0752 12.2271 47.0752Z" fill="white"/>
<path d="M34.4671 47.0752H30.7605C30.6234 47.0752 30.5125 47.1861 30.5125 47.3232C30.5125 47.4604 30.6234 47.5713 30.7605 47.5713H34.4671C34.6042 47.5713 34.7151 47.4604 34.7151 47.3232C34.7151 47.1869 34.6042 47.0752 34.4671 47.0752Z" fill="white"/>
<path d="M27.0542 47.0752H23.3472C23.2101 47.0752 23.0991 47.1861 23.0991 47.3232C23.0991 47.4604 23.2101 47.5713 23.3472 47.5713H27.0538C27.1909 47.5713 27.3018 47.4604 27.3018 47.3232C27.3022 47.1869 27.1913 47.0752 27.0542 47.0752H27.0542Z" fill="white"/>
<path d="M19.6402 47.0752H15.9336C15.7965 47.0752 15.6855 47.1861 15.6855 47.3232C15.6855 47.4604 15.7965 47.5713 15.9336 47.5713H19.6402C19.7773 47.5713 19.8882 47.4604 19.8882 47.3232C19.8882 47.1869 19.7773 47.0752 19.6402 47.0752Z" fill="white"/>
<path d="M41.8802 47.0752H38.1736C38.0365 47.0752 37.9255 47.1861 37.9255 47.3232C37.9255 47.4604 38.0365 47.5713 38.1736 47.5713H41.8802C42.0173 47.5713 42.1282 47.4604 42.1282 47.3232C42.1282 47.1869 42.0173 47.0752 41.8802 47.0752Z" fill="white"/>
<path d="M2.82715 27.0533C2.82715 27.1904 2.93809 27.3013 3.0752 27.3013C3.21231 27.3013 3.32325 27.1904 3.32325 27.0533V23.3467C3.32325 23.2096 3.21231 23.0986 3.0752 23.0986C2.93809 23.0986 2.82715 23.2096 2.82715 23.3467V27.0533Z" fill="white"/>
<path d="M2.82715 41.8804C2.82715 42.0175 2.93809 42.1285 3.0752 42.1285C3.21231 42.1285 3.32325 42.0175 3.32325 41.8804V38.1738C3.32325 38.0367 3.21231 37.9258 3.0752 37.9258C2.93809 37.9258 2.82715 38.0367 2.82715 38.1738V41.8804Z" fill="white"/>
<path d="M3.0752 12.4742C3.21231 12.4742 3.32326 12.3632 3.32326 12.2261V8.51953C3.32326 8.38242 3.21231 8.27148 3.0752 8.27148C2.93809 8.27148 2.82715 8.38242 2.82715 8.51953V12.2261C2.82715 12.3629 2.93809 12.4742 3.0752 12.4742Z" fill="white"/>
<path d="M2.82715 34.4664C2.82715 34.6035 2.93809 34.7144 3.0752 34.7144C3.21231 34.7144 3.32325 34.6035 3.32325 34.4664V30.7598C3.32325 30.6227 3.21231 30.5117 3.0752 30.5117C2.93809 30.5117 2.82715 30.6227 2.82715 30.7598V34.4664Z" fill="white"/>
<path d="M2.82715 19.6396C2.82715 19.7767 2.93809 19.8877 3.0752 19.8877C3.21231 19.8877 3.32325 19.7767 3.32325 19.6396V15.9326C3.32325 15.7955 3.21231 15.6846 3.0752 15.6846C2.93809 15.6846 2.82715 15.7955 2.82715 15.9326V19.6396Z" fill="white"/>
<path d="M15.9331 3.32374H19.6397C19.7768 3.32374 19.8878 3.2128 19.8878 3.07569C19.8878 2.93858 19.7768 2.82764 19.6397 2.82764H15.9331C15.796 2.82764 15.6851 2.93858 15.6851 3.07569C15.6851 3.21202 15.796 3.32374 15.9331 3.32374Z" fill="white"/>
<path d="M8.52003 3.32374H12.2266C12.3637 3.32374 12.4747 3.2128 12.4747 3.07569C12.4747 2.93858 12.3637 2.82764 12.2266 2.82764H8.52003C8.38292 2.82764 8.27198 2.93858 8.27198 3.07569C8.2712 3.21202 8.38292 3.32374 8.52003 3.32374Z" fill="white"/>
<path d="M41.8802 2.82715H38.1736C38.0365 2.82715 37.9255 2.93809 37.9255 3.0752C37.9255 3.21231 38.0365 3.32325 38.1736 3.32325H41.8802C42.0173 3.32325 42.1282 3.21231 42.1282 3.0752C42.1282 2.93848 42.0173 2.82715 41.8802 2.82715Z" fill="white"/>
<path d="M30.7603 3.32374H34.4669C34.604 3.32374 34.7149 3.2128 34.7149 3.07569C34.7149 2.93858 34.604 2.82764 34.4669 2.82764H30.7603C30.6231 2.82764 30.5122 2.93858 30.5122 3.07569C30.5122 3.21202 30.6231 3.32374 30.7603 3.32374Z" fill="white"/>
<path d="M23.3462 3.32364H27.0528C27.1899 3.32364 27.3008 3.2127 27.3008 3.07559C27.3008 2.93848 27.1899 2.82754 27.0528 2.82754L23.3462 2.82715C23.2091 2.82715 23.0981 2.93809 23.0981 3.0752C23.0981 3.21192 23.2091 3.32364 23.3462 3.32364V3.32364Z" fill="white"/>
<path d="M47.5732 23.3462C47.5732 23.2091 47.4623 23.0981 47.3252 23.0981C47.1881 23.0981 47.0771 23.2091 47.0771 23.3462V27.0528C47.0771 27.1899 47.1881 27.3008 47.3252 27.3008C47.4623 27.3008 47.5732 27.1899 47.5732 27.0528V23.3462Z" fill="white"/>
<path d="M47.3252 37.9253C47.1881 37.9253 47.0771 38.0362 47.0771 38.1733V41.8799C47.0771 42.0171 47.1881 42.128 47.3252 42.128C47.4623 42.128 47.5733 42.0171 47.5733 41.8799V38.1733C47.5733 38.0362 47.4623 37.9253 47.3252 37.9253Z" fill="white"/>
<path d="M47.5732 30.7603C47.5732 30.6231 47.4623 30.5122 47.3252 30.5122C47.1881 30.5122 47.0771 30.6231 47.0771 30.7603V34.4669C47.0771 34.604 47.1881 34.7149 47.3252 34.7149C47.4623 34.7149 47.5732 34.604 47.5732 34.4669V30.7603Z" fill="white"/>
<path d="M47.5732 15.9336C47.5732 15.7965 47.4623 15.6855 47.3252 15.6855C47.1881 15.6855 47.0771 15.7965 47.0771 15.9336V19.6402C47.0771 19.7773 47.1881 19.8882 47.3252 19.8882C47.4623 19.8882 47.5732 19.7773 47.5732 19.6402V15.9336Z" fill="white"/>
<path d="M47.5732 8.51953C47.5732 8.38242 47.4623 8.27148 47.3252 8.27148C47.1881 8.27148 47.0771 8.38242 47.0771 8.51953V12.2261C47.0771 12.3632 47.1881 12.4742 47.3252 12.4742C47.4623 12.4742 47.5732 12.3632 47.5732 12.2261V8.51953Z" fill="white"/>
<path d="M6.1512 3.0758C6.1512 4.7742 4.7742 6.1512 3.0754 6.1512C1.377 6.1512 0 4.7742 0 3.0758C0 1.377 1.377 0 3.0754 0C4.7742 0 6.1512 1.377 6.1512 3.0758Z" fill="white"/>
<path d="M50.4002 3.0758C50.4002 4.7742 49.0232 6.1512 47.3248 6.1512C45.626 6.1512 44.249 4.7742 44.249 3.0758C44.249 1.377 45.626 0 47.3248 0C49.0232 0 50.4002 1.377 50.4002 3.0758Z" fill="white"/>
<path d="M6.1512 47.1252C6.1512 48.824 4.7742 50.201 3.0754 50.201C1.377 50.201 0 48.824 0 47.1252C0 45.4268 1.377 44.0498 3.0754 44.0498C4.7742 44.0498 6.1512 45.4268 6.1512 47.1252Z" fill="white"/>
<path d="M50.4002 47.1252C50.4002 48.824 49.0232 50.201 47.3248 50.201C45.626 50.201 44.249 48.824 44.249 47.1252C44.249 45.4268 45.626 44.0498 47.3248 44.0498C49.0232 44.0498 50.4002 45.4268 50.4002 47.1252Z" fill="white"/>
</svg>
